<svg xmlns="http://www.w3.org/2000/svg" xmlns:xlink="http://www.w3.org/1999/xlink" width="2000" zoomAndPan="magnify" viewBox="0 0 1500 1499.999933" height="2000" preserveAspectRatio="xMidYMid meet" version="1.0"><defs><g/><clipPath id="9aeaeacdf6"><rect x="0" width="1438" y="0" height="474"/></clipPath></defs><g transform="matrix(1, 0, 0, 1, 32, 511)"><g clip-path="url(#9aeaeacdf6)"><g fill="#000000" fill-opacity="1"><g transform="translate(0.296829, 367.581046)"><g><path d="M 30.65625 -271.6875 L 144.546875 -271.6875 C 161.734375 -271.6875 176.59375 -268.722656 189.125 -262.796875 C 201.664062 -256.878906 211.421875 -248.8125 218.390625 -238.59375 C 225.359375 -228.375 228.84375 -216.648438 228.84375 -203.421875 C 228.84375 -188.085938 225.765625 -175.367188 219.609375 -165.265625 C 213.453125 -155.171875 205.148438 -148.960938 194.703125 -146.640625 L 195.0625 -145.59375 C 202.019531 -145.125 209.269531 -142.046875 216.8125 -136.359375 C 224.363281 -130.671875 230.75 -122.832031 235.96875 -112.84375 C 241.195312 -102.863281 243.8125 -90.789062 243.8125 -76.625 C 243.8125 -61.769531 240.15625 -48.59375 232.84375 -37.09375 C 225.53125 -25.601562 214.960938 -16.546875 201.140625 -9.921875 C 187.328125 -3.304688 170.671875 0 151.171875 0 L 30.65625 0 Z M 151.171875 -16.71875 C 174.617188 -16.71875 193.132812 -22.234375 206.71875 -33.265625 C 220.300781 -44.296875 227.09375 -58.75 227.09375 -76.625 C 227.09375 -87.070312 224.597656 -97.113281 219.609375 -106.75 C 214.617188 -116.394531 207.828125 -124.410156 199.234375 -130.796875 C 190.640625 -137.179688 181.117188 -140.835938 170.671875 -141.765625 L 169.28125 -146.640625 C 180.894531 -148.960938 189.773438 -153.257812 195.921875 -159.53125 C 202.078125 -165.800781 206.316406 -172.941406 208.640625 -180.953125 C 210.960938 -188.960938 212.125 -196.453125 212.125 -203.421875 C 212.125 -218.972656 205.851562 -231.453125 193.3125 -240.859375 C 180.769531 -250.265625 164.515625 -254.96875 144.546875 -254.96875 L 47.375 -254.96875 L 47.375 -16.71875 Z M 77.328125 -237.203125 L 134.796875 -237.203125 C 148.492188 -237.203125 159.867188 -233.019531 168.921875 -224.65625 C 177.984375 -216.300781 182.515625 -205.273438 182.515625 -191.578125 C 182.515625 -178.566406 178.566406 -168.054688 170.671875 -160.046875 C 162.773438 -152.035156 151.28125 -148.03125 136.1875 -148.03125 L 77.328125 -148.03125 Z M 136.1875 -164.75 C 145.707031 -164.75 153.019531 -167.1875 158.125 -172.0625 C 163.238281 -176.9375 165.796875 -183.441406 165.796875 -191.578125 C 165.796875 -200.398438 162.832031 -207.421875 156.90625 -212.640625 C 150.988281 -217.867188 143.617188 -220.484375 134.796875 -220.484375 L 94.046875 -220.484375 L 94.046875 -164.75 Z M 77.328125 -132.703125 L 140.375 -132.703125 C 156.851562 -132.703125 170.375 -128.40625 180.9375 -119.8125 C 191.507812 -111.226562 196.796875 -99.617188 196.796875 -84.984375 C 196.796875 -69.890625 191.976562 -57.929688 182.34375 -49.109375 C 172.707031 -40.285156 159.296875 -35.875 142.109375 -35.875 L 77.328125 -35.875 Z M 142.109375 -52.59375 C 153.722656 -52.59375 162.953125 -55.4375 169.796875 -61.125 C 176.648438 -66.8125 180.078125 -74.765625 180.078125 -84.984375 C 180.078125 -94.972656 176.300781 -102.632812 168.75 -107.96875 C 161.207031 -113.3125 151.75 -115.984375 140.375 -115.984375 L 94.046875 -115.984375 L 94.046875 -52.59375 Z M 142.109375 -52.59375 "/></g></g></g><g fill="#000000" fill-opacity="1"><g transform="translate(256.648431, 367.581046)"><g><path d="M 80.8125 -271.6875 L 97.53125 -271.6875 L 97.53125 0 L 80.8125 0 Z M 32.046875 -271.6875 L 48.765625 -271.6875 L 48.765625 0 L 32.046875 0 Z M 32.046875 -271.6875 "/></g></g></g><g fill="#000000" fill-opacity="1"><g transform="translate(386.217431, 367.581046)"><g><path d="M 93.34375 -271.6875 L 93.34375 -173.8125 L 177.984375 -271.6875 L 199.9375 -271.6875 L 76.625 -129.21875 L 76.625 -271.6875 Z M 135.84375 -164.0625 L 229.53125 -271.6875 L 251.484375 -271.6875 L 156.390625 -162.3125 L 259.84375 0 L 239.984375 0 Z M 30.65625 -271.6875 L 47.375 -271.6875 L 47.375 0 L 30.65625 0 Z M 112.859375 -115.640625 L 93.34375 -94.390625 L 93.34375 0 L 76.625 0 L 76.625 -100.65625 L 115.640625 -143.15625 L 204.453125 0 L 184.609375 0 Z M 112.859375 -115.640625 "/></g></g></g><g fill="#000000" fill-opacity="1"><g transform="translate(640.479233, 367.581046)"><g><path d="M 159.171875 -254.96875 L 102.75 -254.96875 L 17.421875 0 L 0 0 L 90.5625 -271.6875 L 171.375 -271.6875 L 261.9375 0 L 243.8125 0 Z M 120.171875 -227.453125 L 140.375 -227.453125 L 182.171875 -100.3125 L 78.375 -100.3125 Z M 159.171875 -117.03125 C 158.015625 -120.75 156.160156 -126.320312 153.609375 -133.75 C 151.054688 -141.175781 148.269531 -149.476562 145.25 -158.65625 C 142.226562 -167.832031 139.441406 -177.003906 136.890625 -186.171875 C 134.335938 -195.347656 132.476562 -203.535156 131.3125 -210.734375 L 129.21875 -210.734375 C 128.0625 -203.765625 126.265625 -195.691406 123.828125 -186.515625 C 121.390625 -177.347656 118.660156 -168.175781 115.640625 -159 C 112.617188 -149.832031 109.832031 -141.472656 107.28125 -133.921875 C 104.726562 -126.378906 102.867188 -120.75 101.703125 -117.03125 Z M 176.59375 -63.734375 L 84.640625 -63.734375 L 63.046875 0 L 45.625 0 L 72.796875 -80.453125 L 188.78125 -80.453125 L 214.90625 0 L 197.5 0 Z M 176.59375 -63.734375 "/></g></g></g><g fill="#000000" fill-opacity="1"><g transform="translate(902.403698, 367.581046)"><g><path d="M 88.46875 -122.25 C 67.800781 -129.6875 52.1875 -139.207031 41.625 -150.8125 C 31.0625 -162.425781 25.78125 -178.332031 25.78125 -198.53125 C 25.78125 -213.164062 29.609375 -226.578125 37.265625 -238.765625 C 44.929688 -250.960938 55.960938 -260.71875 70.359375 -268.03125 C 84.753906 -275.34375 102.050781 -279 122.25 -279 C 171.71875 -279 204.226562 -261.003906 219.78125 -225.015625 L 206.546875 -215.609375 C 197.253906 -234.179688 185.582031 -246.601562 171.53125 -252.875 C 157.488281 -259.144531 141.0625 -262.28125 122.25 -262.28125 C 105.769531 -262.28125 91.550781 -259.4375 79.59375 -253.75 C 67.632812 -248.0625 58.460938 -240.394531 52.078125 -230.75 C 45.691406 -221.113281 42.5 -210.375 42.5 -198.53125 C 42.5 -182.28125 46.910156 -169.625 55.734375 -160.5625 C 64.554688 -151.507812 77.328125 -143.96875 94.046875 -137.9375 L 133.40625 -124 C 151.050781 -117.726562 163.007812 -110.46875 169.28125 -102.21875 C 175.550781 -93.976562 178.6875 -84.632812 178.6875 -74.1875 C 178.6875 -61.644531 174.390625 -51.191406 165.796875 -42.828125 C 157.203125 -34.472656 142.921875 -30.296875 122.953125 -30.296875 C 108.328125 -30.296875 94.28125 -34.878906 80.8125 -44.046875 C 67.34375 -53.222656 56.195312 -67.453125 47.375 -86.734375 L 61.65625 -96.484375 C 67.6875 -80.921875 76.390625 -68.785156 87.765625 -60.078125 C 99.148438 -51.367188 110.878906 -47.015625 122.953125 -47.015625 C 136.421875 -47.015625 146.289062 -49.453125 152.5625 -54.328125 C 158.832031 -59.210938 161.96875 -65.832031 161.96875 -74.1875 C 161.96875 -81.625 159.410156 -88.066406 154.296875 -93.515625 C 149.191406 -98.972656 140.367188 -103.910156 127.828125 -108.328125 Z M 111.109375 -160.21875 C 96.015625 -165.332031 85.445312 -171.488281 79.40625 -178.6875 C 73.375 -185.882812 70.359375 -193.660156 70.359375 -202.015625 C 70.359375 -209.210938 72.039062 -215.945312 75.40625 -222.21875 C 78.769531 -228.488281 84.457031 -233.597656 92.46875 -237.546875 C 100.488281 -241.492188 111.234375 -243.46875 124.703125 -243.46875 C 138.398438 -243.46875 150.703125 -239.984375 161.609375 -233.015625 C 172.523438 -226.054688 181.234375 -215.722656 187.734375 -202.015625 L 173.8125 -191.921875 C 169.625 -203.066406 163.117188 -211.65625 154.296875 -217.6875 C 145.472656 -223.726562 135.609375 -226.75 124.703125 -226.75 C 111.234375 -226.75 101.59375 -224.367188 95.78125 -219.609375 C 89.976562 -214.847656 87.078125 -208.984375 87.078125 -202.015625 C 87.078125 -191.335938 96.832031 -182.75 116.34375 -176.25 L 159.53125 -161.96875 C 180.195312 -155.226562 196.625 -145.359375 208.8125 -132.359375 C 221 -119.359375 227.09375 -102.289062 227.09375 -81.15625 C 227.09375 -53.0625 218.09375 -31.347656 200.09375 -16.015625 C 182.101562 -0.691406 156.503906 6.96875 123.296875 6.96875 C 95.203125 6.96875 71.863281 0.695312 53.28125 -11.84375 C 34.707031 -24.382812 21.59375 -41.800781 13.9375 -64.09375 L 26.46875 -72.453125 C 36.6875 -49.460938 49.921875 -33.207031 66.171875 -23.6875 C 82.429688 -14.164062 101.472656 -9.40625 123.296875 -9.40625 C 150.929688 -9.40625 172.351562 -15.554688 187.5625 -27.859375 C 202.769531 -40.171875 210.375 -57.9375 210.375 -81.15625 C 210.375 -98.34375 205.207031 -112.039062 194.875 -122.25 C 184.539062 -132.46875 171.015625 -140.363281 154.296875 -145.9375 Z M 111.109375 -160.21875 "/></g></g></g><g fill="#000000" fill-opacity="1"><g transform="translate(1151.789302, 367.581046)"><g><path d="M 142.109375 6.96875 C 117.035156 6.96875 95.09375 1.164062 76.28125 -10.4375 C 57.46875 -22.050781 42.835938 -38.597656 32.390625 -60.078125 C 21.941406 -81.554688 16.71875 -107.039062 16.71875 -136.53125 C 16.71875 -165.332031 21.941406 -190.410156 32.390625 -211.765625 C 42.835938 -233.128906 57.46875 -249.675781 76.28125 -261.40625 C 95.09375 -273.132812 117.035156 -279 142.109375 -279 C 167.191406 -279 189.078125 -273.078125 207.765625 -261.234375 C 226.460938 -249.390625 240.914062 -232.785156 251.125 -211.421875 C 261.34375 -190.054688 266.453125 -165.09375 266.453125 -136.53125 C 266.453125 -107.039062 261.34375 -81.554688 251.125 -60.078125 C 240.914062 -38.597656 226.460938 -22.050781 207.765625 -10.4375 C 189.078125 1.164062 167.191406 6.96875 142.109375 6.96875 Z M 142.109375 -9.40625 C 164.171875 -9.40625 183.210938 -14.628906 199.234375 -25.078125 C 215.253906 -35.523438 227.675781 -50.269531 236.5 -69.3125 C 245.320312 -88.351562 249.734375 -110.757812 249.734375 -136.53125 C 249.734375 -161.613281 245.320312 -183.554688 236.5 -202.359375 C 227.675781 -221.171875 215.253906 -235.859375 199.234375 -246.421875 C 183.210938 -256.992188 164.171875 -262.28125 142.109375 -262.28125 C 120.046875 -262.28125 100.890625 -257.054688 84.640625 -246.609375 C 68.390625 -236.160156 55.789062 -221.53125 46.84375 -202.71875 C 37.90625 -183.90625 33.4375 -161.84375 33.4375 -136.53125 C 33.4375 -110.757812 37.90625 -88.351562 46.84375 -69.3125 C 55.789062 -50.269531 68.390625 -35.523438 84.640625 -25.078125 C 100.890625 -14.628906 120.046875 -9.40625 142.109375 -9.40625 Z M 142.109375 -30.65625 C 128.179688 -30.65625 115.351562 -34.71875 103.625 -42.84375 C 91.894531 -50.96875 82.546875 -62.867188 75.578125 -78.546875 C 68.617188 -94.222656 65.140625 -113.550781 65.140625 -136.53125 C 65.140625 -159.757812 68.851562 -179.09375 76.28125 -194.53125 C 83.707031 -209.976562 93.285156 -221.585938 105.015625 -229.359375 C 116.742188 -237.140625 129.109375 -241.03125 142.109375 -241.03125 C 156.046875 -241.03125 168.757812 -237.140625 180.25 -229.359375 C 191.75 -221.585938 200.921875 -209.976562 207.765625 -194.53125 C 214.617188 -179.09375 218.046875 -159.757812 218.046875 -136.53125 C 218.046875 -113.550781 214.445312 -94.222656 207.25 -78.546875 C 200.050781 -62.867188 190.703125 -50.96875 179.203125 -42.84375 C 167.710938 -34.71875 155.347656 -30.65625 142.109375 -30.65625 Z M 142.109375 -47.375 C 153.023438 -47.375 162.953125 -50.851562 171.890625 -57.8125 C 180.828125 -64.78125 187.96875 -74.941406 193.3125 -88.296875 C 198.65625 -101.648438 201.328125 -117.726562 201.328125 -136.53125 C 201.328125 -164.863281 195.753906 -186.578125 184.609375 -201.671875 C 173.460938 -216.765625 159.296875 -224.3125 142.109375 -224.3125 C 131.429688 -224.3125 121.503906 -220.941406 112.328125 -214.203125 C 103.160156 -207.472656 95.789062 -197.601562 90.21875 -184.59375 C 84.644531 -171.59375 81.859375 -155.570312 81.859375 -136.53125 C 81.859375 -117.726562 84.46875 -101.648438 89.6875 -88.296875 C 94.914062 -74.941406 102.113281 -64.78125 111.28125 -57.8125 C 120.457031 -50.851562 130.734375 -47.375 142.109375 -47.375 Z M 142.109375 -47.375 "/></g></g></g></g></g></svg>