<svg xmlns="http://www.w3.org/2000/svg" xmlns:xlink="http://www.w3.org/1999/xlink" width="2000" zoomAndPan="magnify" viewBox="0 0 1500 1499.999933" height="2000" preserveAspectRatio="xMidYMid meet" version="1.0"><defs><g/><clipPath id="91d3e9f32e"><rect x="0" width="1412" y="0" height="410"/></clipPath></defs><g transform="matrix(1, 0, 0, 1, 44, 545)"><g clip-path="url(#91d3e9f32e)"><g fill="#000000" fill-opacity="1"><g transform="translate(0.983078, 307.184383)"><g><path d="M 126.4375 2.859375 C 119.070312 2.859375 111.84375 2.585938 104.75 2.046875 C 97.65625 1.503906 90.835938 0.820312 84.296875 0 L 9.40625 0 L 9.40625 -191.5 C 9.40625 -209.226562 12.472656 -223.816406 18.609375 -235.265625 C 24.753906 -246.722656 32.664062 -255.722656 42.34375 -262.265625 C 52.03125 -268.816406 62.460938 -273.457031 73.640625 -276.1875 C 84.828125 -278.914062 95.46875 -280.28125 105.5625 -280.28125 C 131.207031 -280.28125 154.050781 -277.484375 174.09375 -271.890625 C 194.144531 -266.296875 209.96875 -258.039062 221.5625 -247.125 C 233.15625 -236.21875 238.953125 -222.71875 238.953125 -206.625 C 238.953125 -189.71875 232.539062 -175.804688 219.71875 -164.890625 C 206.90625 -153.984375 189.585938 -146.078125 167.765625 -141.171875 C 195.316406 -137.617188 217.546875 -130.316406 234.453125 -119.265625 C 251.367188 -108.222656 259.828125 -93.019531 259.828125 -73.65625 C 259.828125 -57.832031 254.03125 -44.191406 242.4375 -32.734375 C 230.84375 -21.273438 215.019531 -12.476562 194.96875 -6.34375 C 174.914062 -0.207031 152.070312 2.859375 126.4375 2.859375 Z M 103.921875 -142.796875 C 118.929688 -143.066406 130.867188 -146.40625 139.734375 -152.8125 C 148.597656 -159.226562 152.894531 -168.300781 152.625 -180.03125 C 152.351562 -191.757812 145.941406 -205.398438 133.390625 -220.953125 C 124.117188 -232.953125 113.207031 -241.816406 100.65625 -247.546875 C 88.101562 -253.273438 76.375 -256.140625 65.46875 -256.140625 C 56.46875 -256.140625 49.851562 -254.570312 45.625 -251.4375 C 41.394531 -248.300781 38.9375 -244.6875 38.25 -240.59375 C 37.570312 -236.5 37.914062 -232.679688 39.28125 -229.140625 C 41.457031 -224.222656 44.796875 -220.195312 49.296875 -217.0625 C 53.804688 -213.925781 58.921875 -210.789062 64.640625 -207.65625 C 70.367188 -204.519531 75.828125 -200.90625 81.015625 -196.8125 C 86.203125 -192.71875 90.5 -187.328125 93.90625 -180.640625 C 97.3125 -173.960938 99.015625 -165.304688 99.015625 -154.671875 L 99.015625 -37.234375 C 123.023438 -9.410156 145.394531 -1.09375 166.125 -12.28125 C 171.300781 -15.28125 174.976562 -20.800781 177.15625 -28.84375 C 179.34375 -36.894531 179.550781 -46.441406 177.78125 -57.484375 C 176.007812 -68.535156 171.578125 -79.789062 164.484375 -91.25 C 155.210938 -105.976562 145.253906 -116.75 134.609375 -123.5625 C 123.972656 -130.382812 113.742188 -133.796875 103.921875 -133.796875 Z M 103.921875 -142.796875 "/></g></g></g><g fill="#000000" fill-opacity="1"><g transform="translate(268.17569, 307.184383)"><g><path d="M 99.015625 0 L 9.40625 0 L 9.40625 -277.421875 L 99.015625 -277.421875 Z M 99.015625 0 "/></g></g></g><g fill="#000000" fill-opacity="1"><g transform="translate(380.699408, 307.184383)"><g><path d="M 127.25 -145.671875 L 127.25 -157.125 C 127.25 -173.21875 127.65625 -188.628906 128.46875 -203.359375 C 129.289062 -218.085938 131.539062 -231.179688 135.21875 -242.640625 C 138.90625 -254.097656 144.976562 -263.164062 153.4375 -269.84375 C 161.894531 -276.53125 173.757812 -279.875 189.03125 -279.875 C 198.039062 -279.875 205.40625 -278.164062 211.125 -274.75 C 216.851562 -271.34375 221.695312 -267.390625 225.65625 -262.890625 C 229.613281 -258.390625 233.5 -254.429688 237.3125 -251.015625 C 241.132812 -247.609375 245.910156 -245.90625 251.640625 -245.90625 C 257.097656 -245.90625 261.460938 -249.109375 264.734375 -255.515625 C 268.003906 -261.929688 269.640625 -269.097656 269.640625 -277.015625 L 279.875 -277.015625 C 279.875 -239.367188 275.097656 -212.085938 265.546875 -195.171875 C 256.003906 -178.265625 241.140625 -169.8125 220.953125 -169.8125 C 212.765625 -169.8125 206.007812 -170.898438 200.6875 -173.078125 C 195.375 -175.265625 190.875 -177.789062 187.1875 -180.65625 C 183.507812 -183.519531 179.828125 -186.039062 176.140625 -188.21875 C 172.460938 -190.40625 168.03125 -191.5 162.84375 -191.5 C 156.300781 -191.5 151.117188 -189.453125 147.296875 -185.359375 C 143.484375 -181.265625 140.828125 -176.421875 139.328125 -170.828125 C 137.828125 -165.234375 137.078125 -160.117188 137.078125 -155.484375 L 137.078125 -147.71875 C 148.523438 -147.71875 159.566406 -147.507812 170.203125 -147.09375 C 180.847656 -146.6875 190.875 -144.84375 200.28125 -141.5625 C 209.695312 -138.289062 218.085938 -132.15625 225.453125 -123.15625 C 230.910156 -116.613281 235.070312 -109.660156 237.9375 -102.296875 C 240.800781 -94.929688 243.117188 -87.703125 244.890625 -80.609375 C 246.660156 -73.515625 248.5 -66.96875 250.40625 -60.96875 C 252.320312 -54.96875 255.050781 -50.191406 258.59375 -46.640625 C 265.6875 -39.546875 272.710938 -36.75 279.671875 -38.25 C 286.628906 -39.757812 293.242188 -43.785156 299.515625 -50.328125 L 306.0625 -43.78125 C 299.238281 -34.78125 290.644531 -26.53125 280.28125 -19.03125 C 269.914062 -11.53125 258.660156 -5.9375 246.515625 -2.25 C 234.378906 1.425781 222.175781 2.109375 209.90625 -0.203125 C 197.632812 -2.523438 186.175781 -9.003906 175.53125 -19.640625 C 168.4375 -26.734375 164.140625 -34.503906 162.640625 -42.953125 C 161.140625 -51.410156 161.207031 -60.070312 162.84375 -68.9375 C 164.488281 -77.8125 166.265625 -86.335938 168.171875 -94.515625 C 170.078125 -102.703125 170.894531 -110.066406 170.625 -116.609375 C 170.351562 -123.160156 167.828125 -128.410156 163.046875 -132.359375 C 158.273438 -136.316406 149.617188 -138.296875 137.078125 -138.296875 C 136.796875 -119.203125 135.5625 -101.265625 133.375 -84.484375 C 131.195312 -67.710938 127.445312 -52.984375 122.125 -40.296875 C 116.8125 -27.617188 109.378906 -17.734375 99.828125 -10.640625 C 90.285156 -3.546875 78.015625 0 63.015625 0 L 9.40625 0 L 9.40625 -277.421875 L 99.015625 -277.421875 L 99.015625 -146.078125 C 99.015625 -132.429688 97.171875 -121.242188 93.484375 -112.515625 C 89.804688 -103.785156 85.101562 -96.898438 79.375 -91.859375 C 73.644531 -86.816406 67.578125 -82.789062 61.171875 -79.78125 C 54.765625 -76.78125 48.832031 -74.191406 43.375 -72.015625 C 37.914062 -69.828125 33.140625 -66.347656 29.046875 -61.578125 C 24.953125 -56.804688 22.15625 -51.488281 20.65625 -45.625 C 19.15625 -39.757812 19.425781 -34.097656 21.46875 -28.640625 C 23.519531 -23.179688 27.882812 -18.675781 34.5625 -15.125 C 41.25 -11.582031 50.734375 -9.8125 63.015625 -9.8125 C 76.648438 -9.8125 87.695312 -13.289062 96.15625 -20.25 C 104.613281 -27.207031 111.09375 -36.890625 115.59375 -49.296875 C 120.09375 -61.710938 123.160156 -76.171875 124.796875 -92.671875 C 126.429688 -109.179688 127.25 -126.847656 127.25 -145.671875 Z M 127.25 -145.671875 "/></g></g></g><g fill="#000000" fill-opacity="1"><g transform="translate(642.16344, 307.184383)"><g><path d="M 128.484375 0 L 7.359375 0 C 7.359375 -14.726562 9.539062 -30.140625 13.90625 -46.234375 C 18.269531 -62.328125 23.929688 -78.285156 30.890625 -94.109375 C 37.847656 -109.929688 45.210938 -124.796875 52.984375 -138.703125 C 60.765625 -152.617188 68.0625 -164.757812 74.875 -175.125 C 79.507812 -182.21875 84.554688 -189.3125 90.015625 -196.40625 C 95.472656 -203.5 100.789062 -210.316406 105.96875 -216.859375 C 100.789062 -234.046875 95.742188 -247.003906 90.828125 -255.734375 C 85.921875 -264.460938 78.832031 -268.828125 69.5625 -268.828125 L 69.5625 -279.46875 C 90.289062 -279.46875 108.5 -276.738281 124.1875 -271.28125 C 139.875 -265.820312 153.375 -258.59375 164.6875 -249.59375 C 176.007812 -240.59375 185.351562 -230.5 192.71875 -219.3125 C 200.082031 -208.132812 205.675781 -196.816406 209.5 -185.359375 C 218.226562 -159.171875 225.457031 -134.207031 231.1875 -110.46875 C 236.914062 -86.738281 243.867188 -65.328125 252.046875 -46.234375 C 257.234375 -34.503906 264.257812 -28.023438 273.125 -26.796875 C 281.988281 -25.566406 289.691406 -28.363281 296.234375 -35.1875 L 303.203125 -27.828125 C 295.015625 -16.367188 284.988281 -8.390625 273.125 -3.890625 C 261.257812 0.609375 250.144531 2.859375 239.78125 2.859375 C 224.769531 2.859375 211.195312 -0.820312 199.0625 -8.1875 C 186.925781 -15.550781 176.628906 -25.164062 168.171875 -37.03125 C 159.710938 -48.894531 153.164062 -61.507812 148.53125 -74.875 L 87.5625 -74.875 C 92.195312 -60.144531 98.128906 -46.234375 105.359375 -33.140625 C 112.585938 -20.046875 120.296875 -9 128.484375 0 Z M 145.25 -84.703125 C 139.25 -103.523438 133.316406 -123.570312 127.453125 -144.84375 C 121.585938 -166.125 115.65625 -186.3125 109.65625 -205.40625 C 107.195312 -201.851562 104.738281 -198.441406 102.28125 -195.171875 C 99.832031 -191.898438 97.378906 -188.351562 94.921875 -184.53125 C 85.648438 -170.625 80.601562 -154.875 79.78125 -137.28125 C 78.96875 -119.6875 80.742188 -102.160156 85.109375 -84.703125 Z M 145.25 -84.703125 "/></g></g></g><g fill="#000000" fill-opacity="1"><g transform="translate(896.262374, 307.184383)"><g><path d="M 7.359375 -196 C 7.359375 -211 11.378906 -224.835938 19.421875 -237.515625 C 27.472656 -250.203125 38.382812 -260.429688 52.15625 -268.203125 C 65.9375 -275.984375 81.421875 -279.875 98.609375 -279.875 C 108.703125 -279.875 117.703125 -278.304688 125.609375 -275.171875 C 133.523438 -272.035156 140.6875 -268.351562 147.09375 -264.125 C 153.507812 -259.894531 159.441406 -256.210938 164.890625 -253.078125 C 170.347656 -249.941406 175.53125 -248.375 180.4375 -248.375 C 190.8125 -248.375 197.5 -251.03125 200.5 -256.34375 C 203.5 -261.664062 205 -268.828125 205 -277.828125 L 214.40625 -277.828125 C 215.769531 -266.640625 215.90625 -255.113281 214.8125 -243.25 C 213.71875 -231.382812 210.71875 -220.40625 205.8125 -210.3125 C 200.90625 -200.21875 193.675781 -192.035156 184.125 -185.765625 C 174.582031 -179.492188 162.171875 -176.359375 146.890625 -176.359375 C 136.796875 -176.359375 127.863281 -178.609375 120.09375 -183.109375 C 112.320312 -187.609375 105.296875 -193.195312 99.015625 -199.875 C 92.742188 -206.5625 87.082031 -213.378906 82.03125 -220.328125 C 76.988281 -227.285156 72.078125 -233.285156 67.296875 -238.328125 C 62.523438 -243.378906 57.617188 -246.453125 52.578125 -247.546875 C 47.535156 -248.640625 42.007812 -246.734375 36 -241.828125 C 29.457031 -236.367188 28.4375 -229.613281 32.9375 -221.5625 C 37.4375 -213.519531 46.914062 -205.335938 61.375 -197.015625 C 75.832031 -188.691406 94.519531 -181.257812 117.4375 -174.71875 C 126.164062 -172.257812 136.460938 -168.78125 148.328125 -164.28125 C 160.191406 -159.78125 171.851562 -153.914062 183.3125 -146.6875 C 194.769531 -139.457031 204.316406 -130.660156 211.953125 -120.296875 C 219.585938 -109.929688 223.40625 -97.65625 223.40625 -83.46875 C 223.40625 -68.195312 219.3125 -54.015625 211.125 -40.921875 C 202.945312 -27.828125 191.898438 -17.253906 177.984375 -9.203125 C 164.078125 -1.160156 148.257812 2.859375 130.53125 2.859375 C 120.4375 2.859375 111.160156 1.222656 102.703125 -2.046875 C 94.242188 -5.316406 86.46875 -9 79.375 -13.09375 C 72.28125 -17.1875 65.734375 -20.867188 59.734375 -24.140625 C 53.734375 -27.410156 48.144531 -29.046875 42.96875 -29.046875 C 32.875 -29.046875 26.253906 -26.382812 23.109375 -21.0625 C 19.972656 -15.75 18.40625 -8.59375 18.40625 0.40625 L 9.40625 0.40625 C 7.769531 -10.769531 7.566406 -22.289062 8.796875 -34.15625 C 10.023438 -46.03125 13.09375 -57.015625 18 -67.109375 C 22.914062 -77.203125 30.144531 -85.382812 39.6875 -91.65625 C 49.238281 -97.925781 61.515625 -101.0625 76.515625 -101.0625 C 86.609375 -101.0625 95.742188 -98.8125 103.921875 -94.3125 C 112.109375 -89.8125 119.539062 -84.148438 126.21875 -77.328125 C 132.90625 -70.515625 139.113281 -63.628906 144.84375 -56.671875 C 150.570312 -49.710938 156.023438 -43.707031 161.203125 -38.65625 C 166.390625 -33.613281 171.570312 -30.546875 176.75 -29.453125 C 181.9375 -28.367188 187.394531 -30.28125 193.125 -35.1875 C 199.675781 -40.914062 200.019531 -48.007812 194.15625 -56.46875 C 188.289062 -64.925781 177.648438 -73.519531 162.234375 -82.25 C 146.828125 -90.976562 127.53125 -98.75 104.34375 -105.5625 C 85.789062 -111.019531 69.148438 -117.296875 54.421875 -124.390625 C 39.691406 -131.484375 28.164062 -140.6875 19.84375 -152 C 11.519531 -163.320312 7.359375 -177.988281 7.359375 -196 Z M 7.359375 -196 "/></g></g></g><g fill="#000000" fill-opacity="1"><g transform="translate(1118.85467, 307.184383)"><g><path d="M 146.078125 -279.875 C 165.441406 -279.875 183.441406 -276.257812 200.078125 -269.03125 C 216.722656 -261.800781 231.453125 -251.707031 244.265625 -238.75 C 257.085938 -225.789062 267.046875 -210.785156 274.140625 -193.734375 C 281.234375 -176.691406 284.78125 -158.347656 284.78125 -138.703125 C 284.78125 -119.066406 281.234375 -100.722656 274.140625 -83.671875 C 267.046875 -66.628906 257.085938 -51.628906 244.265625 -38.671875 C 231.453125 -25.710938 216.722656 -15.550781 200.078125 -8.1875 C 183.441406 -0.820312 165.441406 2.859375 146.078125 2.859375 C 126.984375 2.859375 109.046875 -0.820312 92.265625 -8.1875 C 75.492188 -15.550781 60.765625 -25.710938 48.078125 -38.671875 C 35.390625 -51.628906 25.429688 -66.628906 18.203125 -83.671875 C 10.972656 -100.722656 7.359375 -119.066406 7.359375 -138.703125 C 7.359375 -158.347656 10.972656 -176.691406 18.203125 -193.734375 C 25.429688 -210.785156 35.390625 -225.789062 48.078125 -238.75 C 60.765625 -251.707031 75.492188 -261.800781 92.265625 -269.03125 C 109.046875 -276.257812 126.984375 -279.875 146.078125 -279.875 Z M 215.21875 -27.421875 C 223.132812 -32.328125 227.160156 -41.800781 227.296875 -55.84375 C 227.429688 -69.894531 224.222656 -86.535156 217.671875 -105.765625 C 211.128906 -125.003906 201.445312 -144.710938 188.625 -164.890625 C 176.082031 -185.347656 162.648438 -202.804688 148.328125 -217.265625 C 134.003906 -231.722656 120.5 -241.953125 107.8125 -247.953125 C 95.132812 -253.953125 84.835938 -254.5 76.921875 -249.59375 C 69.285156 -244.6875 65.332031 -235.273438 65.0625 -221.359375 C 64.789062 -207.453125 67.992188 -190.878906 74.671875 -171.640625 C 81.359375 -152.410156 90.972656 -132.566406 103.515625 -112.109375 C 116.335938 -91.648438 129.910156 -74.191406 144.234375 -59.734375 C 158.554688 -45.273438 172.054688 -35.113281 184.734375 -29.25 C 197.421875 -23.382812 207.582031 -22.773438 215.21875 -27.421875 Z M 215.21875 -27.421875 "/></g></g></g></g></g></svg>