<svg xmlns="http://www.w3.org/2000/svg" xmlns:xlink="http://www.w3.org/1999/xlink" width="2000" viewBox="0 0 1500 1499.999933" height="2000" preserveAspectRatio="xMidYMid meet" version="1.0"><defs><g/><clipPath id="ac117d24c7"><path d="M 548.523438 470 L 947 470 L 947 1059 L 548.523438 1059 Z M 548.523438 470 " clip-rule="nonzero"/></clipPath><clipPath id="55a7131e29"><rect x="0" width="688" y="0" height="416"/></clipPath><clipPath id="41f6a2607e"><rect x="0" width="594" y="0" height="787"/></clipPath><clipPath id="2accf073c6"><rect x="0" width="803" y="0" height="714"/></clipPath><clipPath id="1d65cebb8c"><rect x="0" width="796" y="0" height="731"/></clipPath><clipPath id="6259a841f3"><rect x="0" width="565" y="0" height="776"/></clipPath></defs><g clip-path="url(#ac117d24c7)"><path fill="#000000" d="M 725.917969 609.761719 C 722.398438 604.136719 720.542969 597.976562 720.121094 592.179688 C 719.949219 590.269531 719.949219 588.394531 720.082031 586.574219 L 720.121094 586.289062 L 720.121094 586.210938 C 720.140625 586.175781 720.140625 586.15625 720.121094 586.15625 L 720.046875 586.078125 C 719.316406 585.847656 718.570312 585.582031 717.863281 585.351562 C 716.296875 584.816406 714.652344 584.144531 713.082031 583.132812 C 709.828125 581.085938 707.726562 578.003906 706.558594 575.136719 C 705.351562 572.210938 704.914062 569.261719 704.875 566.660156 C 704.835938 564.003906 705.144531 561.628906 705.507812 559.488281 C 705.621094 558.953125 705.71875 558.417969 705.8125 557.917969 C 705.890625 557.535156 705.890625 557.574219 705.910156 557.519531 L 705.945312 557.382812 C 705.984375 557.210938 706.253906 556.847656 706.042969 556.808594 C 705.945312 556.753906 705.8125 556.675781 705.71875 556.617188 C 705.71875 556.617188 704.78125 555.949219 704.28125 555.433594 L 704.035156 555.164062 C 703.269531 556.234375 702.425781 557.308594 701.488281 558.339844 C 699.882812 560.101562 698.085938 561.800781 696 563.410156 C 695.003906 564.175781 693.761719 565.015625 692.824219 565.609375 L 692.34375 565.953125 L 692.554688 566.261719 L 692.691406 566.453125 L 692.746094 566.566406 L 692.996094 567.082031 C 693.683594 568.6875 694.296875 570.335938 694.832031 572.113281 C 695.828125 575.632812 696.363281 579.574219 696.039062 583.746094 C 695.675781 587.894531 694.257812 592.277344 691.675781 596.101562 C 690.375 597.996094 688.769531 599.8125 686.816406 601.34375 C 686.359375 601.726562 685.859375 602.128906 685.324219 602.453125 L 684.445312 603.027344 L 684.386719 603.105469 C 684.386719 603.105469 684.40625 603.121094 684.40625 603.160156 C 684.484375 603.257812 684.273438 602.855469 684.921875 604.136719 C 685.820312 605.914062 686.722656 607.789062 687.523438 609.800781 C 689.132812 613.777344 690.414062 618.371094 690.453125 623.324219 C 690.453125 628.277344 689.515625 632.660156 688.863281 637.058594 C 688.769531 637.59375 688.691406 638.167969 688.597656 638.683594 C 692.957031 635.144531 697.203125 631.589844 701.46875 628.335938 C 709.523438 622.175781 717.941406 616.1875 725.917969 609.761719 Z M 745.660156 590.839844 C 745.832031 590.632812 746.042969 590.476562 746.195312 590.304688 C 746.003906 569.167969 744.933594 546.726562 738.46875 526.605469 C 733.035156 509.691406 710.632812 487.3125 690.910156 503.726562 C 683.71875 509.75 679.164062 522.050781 675.378906 530.429688 C 657.050781 570.734375 651.386719 615.785156 657.816406 659.421875 C 665.160156 656.167969 672.046875 651.617188 678.6875 646.566406 C 679.296875 642.875 679.855469 639.257812 680.425781 635.71875 C 681.136719 631.222656 681.976562 626.976562 681.976562 623.363281 C 681.976562 619.804688 681.058594 616.324219 679.71875 612.898438 C 679.050781 611.195312 678.285156 609.492188 677.480469 607.847656 C 676.734375 606.453125 676.046875 605.074219 675.339844 603.695312 C 674.476562 602.050781 673.597656 600.40625 672.757812 598.78125 C 674.746094 598.074219 677.078125 597.441406 678.953125 596.5625 L 680.253906 595.96875 L 680.789062 595.625 C 681.171875 595.433594 681.441406 595.164062 681.765625 594.917969 C 683.011719 593.980469 684.121094 592.8125 685.019531 591.511719 C 686.855469 588.890625 687.90625 585.945312 688.230469 582.960938 C 688.578125 579.957031 688.230469 576.933594 687.523438 574.121094 C 687.160156 572.6875 686.703125 571.308594 686.167969 570.007812 L 685.917969 569.472656 L 685.496094 568.535156 C 685.191406 567.886719 684.921875 567.253906 684.539062 566.625 C 683.851562 565.359375 683.183594 564.078125 682.511719 562.835938 C 684.710938 561.765625 686.894531 560.730469 688.960938 559.621094 C 690.144531 558.953125 690.949219 558.453125 691.886719 557.785156 C 693.148438 556.90625 694.296875 555.949219 695.367188 554.972656 C 696.132812 553.960938 697.050781 552.832031 698.21875 551.453125 C 698.925781 550.613281 700.132812 549.3125 701.355469 547.972656 C 702.023438 546.957031 702.675781 545.964844 703.210938 544.949219 C 706.253906 539.039062 707.113281 533.566406 707.382812 529.378906 C 707.628906 525.1875 707.246094 522.148438 707.09375 520.175781 C 706.921875 518.167969 706.882812 517.191406 707.285156 517.058594 C 707.628906 516.925781 708.320312 517.652344 709.238281 519.5625 C 710.097656 521.515625 711.207031 524.652344 711.609375 529.339844 C 711.933594 533.96875 711.648438 540.300781 708.527344 547.492188 C 708.300781 548.066406 707.992188 548.640625 707.6875 549.175781 C 707.765625 549.503906 707.820312 549.769531 707.917969 550.019531 C 707.992188 550.285156 708.050781 550.554688 708.300781 550.707031 L 708.453125 550.878906 C 708.757812 551.050781 708.625 551.128906 709.867188 551.453125 C 711.074219 551.625 712.316406 551.777344 713.578125 551.949219 C 713.65625 552.488281 713.484375 553.328125 713.351562 554.132812 C 713.214844 554.972656 713.082031 555.816406 712.949219 556.636719 C 712.8125 557.421875 712.679688 558.226562 712.585938 559.027344 C 712.507812 559.488281 712.449219 559.964844 712.414062 560.464844 C 712.203125 562.375 712.085938 564.386719 712.238281 566.355469 C 712.449219 570.179688 714.058594 574.464844 717.308594 576.339844 C 718.132812 576.800781 719.183594 577.242188 720.445312 577.640625 C 721.15625 577.851562 721.863281 578.082031 722.570312 578.273438 C 724.003906 578.714844 725.441406 579.191406 726.855469 579.6875 L 728.996094 580.453125 C 729.015625 581.125 728.882812 581.925781 728.863281 582.671875 C 728.75 584.03125 728.425781 586.078125 728.386719 587.09375 C 728.347656 588.527344 728.347656 589.960938 728.480469 591.472656 C 728.882812 595.625 730.203125 600.082031 732.535156 604.15625 C 737.222656 600.023438 741.679688 595.664062 745.660156 590.839844 Z M 919.378906 779.691406 C 926.992188 766.222656 910.097656 738.792969 903.804688 727.410156 C 903.574219 727.140625 903.347656 726.910156 903.117188 726.605469 C 901.757812 725 900.363281 723.179688 899.023438 721.152344 C 897.609375 719.105469 896.34375 716.753906 894.929688 714.785156 C 893.53125 712.773438 891.945312 711.261719 889.746094 710.289062 C 887.566406 709.292969 884.886719 708.816406 881.980469 708.699219 C 880.523438 708.625 879.050781 708.625 877.578125 708.625 C 876.085938 708.660156 874.613281 708.660156 873.734375 708.851562 C 872.890625 709.0625 872.394531 709.390625 871.589844 710.269531 C 870.84375 711.109375 870.0625 712.238281 869.351562 713.253906 C 867.9375 715.355469 866.828125 717.367188 865.871094 719.585938 C 865.527344 720.214844 865.085938 721.191406 864.015625 721.917969 C 862.8125 722.683594 861.683594 722.664062 861.183594 722.664062 C 860.609375 722.664062 860.574219 722.664062 860.265625 722.722656 C 860.035156 722.78125 859.808594 722.894531 859.539062 723.085938 C 858.46875 723.890625 857.761719 725.398438 857.398438 726.777344 C 856.996094 728.15625 856.859375 729.378906 856.824219 730.449219 C 856.785156 732.574219 857.050781 733.835938 856.652344 734.007812 C 856.34375 734.144531 855.351562 733.148438 854.640625 730.757812 C 854.316406 729.550781 854.105469 728.019531 854.277344 726.203125 C 854.488281 724.425781 854.910156 722.1875 856.824219 720.140625 C 857.320312 719.640625 857.953125 719.164062 858.699219 718.839844 C 859.40625 718.496094 860.4375 718.339844 860.972656 718.304688 C 861.183594 718.265625 861.242188 718.265625 861.335938 718.226562 C 861.335938 718.226562 861.335938 718.207031 861.375 718.167969 L 861.546875 717.730469 C 862.3125 715.492188 863.480469 712.871094 864.953125 710.460938 C 865.699219 709.234375 866.445312 708.050781 867.496094 706.75 C 868.03125 706.078125 868.703125 705.410156 869.542969 704.796875 C 870.386719 704.203125 871.457031 703.726562 872.433594 703.496094 C 874.402344 703 875.972656 703.09375 877.484375 703.039062 C 879.03125 702.960938 880.601562 702.960938 882.285156 703.058594 C 885.554688 703.230469 888.980469 703.765625 892.097656 705.277344 C 895.273438 706.75 897.78125 709.425781 899.253906 711.894531 C 900.820312 714.417969 901.835938 716.695312 903.003906 718.667969 C 903.441406 719.507812 903.902344 720.273438 904.339844 721.019531 C 904.6875 720.3125 905.183594 719.679688 905.929688 719.105469 C 934.851562 697.296875 916.777344 646.261719 888.710938 633.863281 C 886.855469 633.0625 886.089844 631.703125 886.054688 630.25 C 885.765625 629.617188 885.59375 628.871094 885.554688 628.050781 C 885.230469 600.710938 852.175781 584.699219 831.707031 572.382812 C 808.195312 558.1875 782.753906 546.363281 754.878906 554.4375 C 756.21875 568.191406 756.21875 582.0625 756.277344 593.980469 C 756.316406 596.925781 754.269531 598.511719 752.03125 598.78125 C 739.214844 613.875 722.167969 625.101562 706.519531 637.019531 C 691.351562 648.671875 676.449219 662.769531 658.464844 669.90625 C 657.890625 670.976562 656.992188 671.816406 655.921875 672.316406 C 647.46875 693.550781 642.089844 715.355469 639.871094 738.0625 C 641.515625 736.074219 643.21875 734.507812 644.691406 733.242188 C 649.457031 729.359375 652.097656 726.949219 652.726562 727.351562 C 653.433594 727.753906 651.5625 731.425781 647.542969 736.054688 C 645.59375 738.371094 643.355469 741.011719 641.882812 744.222656 C 641.171875 745.792969 640.714844 747.515625 640.675781 749.21875 C 640.597656 750.824219 641.152344 752.46875 642.109375 753.867188 C 643.183594 755.375 644.65625 756.21875 645.992188 756.277344 L 652.460938 756.484375 L 647.984375 760.945312 C 643.21875 765.648438 641.480469 771.789062 641.210938 776.035156 C 640.980469 778.007812 641.480469 779.558594 641.976562 780.320312 C 642.453125 781.066406 643.21875 781.164062 643.296875 781.527344 C 643.429688 781.738281 642.550781 782.636719 640.808594 781.832031 C 639.28125 781.03125 637.921875 778.925781 637.671875 776.171875 C 637.058594 772.078125 637.824219 766.089844 641.382812 760.5625 C 639.816406 759.738281 638.457031 758.53125 637.5 757.117188 C 636.21875 755.300781 635.414062 753.195312 635.1875 751.054688 C 625.140625 763.679688 612.707031 782.941406 613.78125 799.375 C 614.945312 797.539062 616.304688 796.429688 617.300781 795.796875 C 618.542969 795.050781 619.347656 794.898438 619.574219 795.203125 C 620.207031 795.796875 617.929688 798.113281 616.820312 801.898438 C 616.589844 802.855469 616.496094 803.832031 616.667969 804.808594 C 616.800781 805.804688 617.242188 806.816406 617.835938 807.582031 C 618.140625 807.945312 618.464844 808.25 618.867188 808.480469 C 619.117188 808.613281 619.039062 808.558594 619.746094 808.882812 C 620.074219 809.09375 620.589844 809.324219 621.125 809.972656 C 621.660156 810.644531 622.023438 811.675781 621.890625 812.652344 C 621.488281 814.582031 620.589844 815.023438 620.109375 815.484375 L 619.117188 816.265625 C 618.542969 816.726562 618.027344 817.242188 617.527344 817.796875 C 613.492188 822.351562 612.785156 828.511719 612.976562 832.871094 C 613.148438 837.289062 613.722656 840.238281 612.957031 840.503906 C 612.269531 840.773438 610.335938 838.363281 609.035156 833.445312 C 608.421875 830.996094 608.019531 827.917969 608.519531 824.433594 C 609.054688 820.992188 610.507812 817.203125 613.320312 814.007812 C 613.894531 813.417969 614.488281 812.84375 615.117188 812.34375 C 614.527344 811.769531 613.953125 811.199219 613.550781 810.566406 C 613.1875 809.992188 612.957031 809.417969 612.707031 808.863281 C 604.003906 822.523438 598.285156 837.386719 595.875 853.398438 C 597.5 851.199219 599.546875 849.742188 601.324219 848.75 C 606.28125 846.203125 609.589844 846.203125 609.839844 846.835938 C 610.164062 847.601562 607.179688 849.113281 603.5625 852.058594 C 601.824219 853.53125 599.890625 855.617188 599.144531 858.027344 C 598.304688 860.476562 598.550781 863.746094 600.179688 865.488281 C 600.386719 865.71875 600.617188 865.890625 600.847656 866.101562 C 601.097656 866.292969 601.496094 866.539062 601.996094 867.226562 C 602.570312 867.800781 602.988281 869.640625 602.300781 870.824219 C 601.6875 871.894531 601.097656 872.125 600.886719 872.316406 C 600.617188 872.488281 600.351562 872.660156 600.082031 872.832031 C 599.546875 873.101562 599.085938 873.332031 598.609375 873.523438 C 596.734375 874.304688 595.757812 874.726562 595.300781 875.398438 C 594.09375 876.851562 594.113281 879.855469 594.402344 882.207031 C 594.898438 887.027344 595.703125 890.109375 594.9375 890.453125 C 594.265625 890.738281 592.125 888.15625 590.480469 883.011719 C 590.097656 881.730469 589.714844 880.21875 589.597656 878.496094 C 589.503906 876.734375 589.636719 874.574219 591.015625 872.449219 C 591.644531 871.417969 592.679688 870.480469 593.65625 869.886719 C 594.363281 869.449219 595.03125 869.101562 595.664062 868.796875 C 594.09375 866.902344 593.386719 864.625 593.214844 862.542969 C 580.839844 875.796875 573.050781 893.722656 575.539062 912.105469 C 575.84375 914.480469 574.640625 915.953125 572.957031 916.5625 C 572.898438 916.660156 572.824219 916.792969 572.726562 916.890625 C 565.054688 925.039062 560.332031 935.082031 559.066406 946.175781 C 559.085938 946.195312 559.125 946.234375 559.164062 946.292969 C 568.710938 963.546875 574.429688 981.875 590.269531 994.691406 C 601.152344 1003.546875 618.007812 1014.316406 633.214844 1018.371094 C 632.832031 1018.105469 632.429688 1017.835938 632.027344 1017.53125 C 629.351562 1015.464844 626.941406 1013.015625 625.140625 1010.109375 C 623.859375 1008.117188 623.058594 1005.824219 622.730469 1003.507812 C 619.574219 1003.777344 616.628906 1003.375 614.085938 1002.589844 C 610.738281 1001.597656 607.828125 999.625 606.453125 997.136719 C 605.074219 994.632812 605.246094 992.28125 605.800781 990.941406 C 606.375 989.601562 607.121094 989.199219 607.3125 989.332031 C 607.582031 989.503906 607.390625 990.214844 607.429688 991.285156 C 607.449219 992.355469 607.828125 993.964844 609.035156 995.359375 C 611.3125 998.191406 617.96875 999.816406 624.511719 998.019531 L 627.820312 997.101562 L 627.707031 1000.660156 C 627.589844 1004.945312 630.863281 1009.496094 635.511719 1013.09375 C 639.203125 1015.925781 643.027344 1018.335938 646.128906 1017.933594 C 649.457031 1017.664062 652.707031 1015.253906 655.539062 1013.113281 L 658.332031 1011.066406 L 659.15625 1014.183594 C 660.339844 1018.582031 663.6875 1021.355469 666.136719 1022.636719 C 668.644531 1023.957031 670.421875 1024.246094 670.421875 1024.742188 C 670.441406 1025.144531 668.546875 1025.832031 665.21875 1025.050781 C 662.617188 1024.398438 658.867188 1022.464844 656.324219 1018.46875 C 655.519531 1019.136719 654.640625 1019.808594 653.664062 1020.457031 C 652.289062 1021.394531 650.679688 1022.257812 648.824219 1022.792969 C 671.148438 1038.34375 695.636719 1048.882812 723.375 1046.835938 C 722.855469 1046.550781 722.359375 1046.246094 721.917969 1045.898438 C 719.871094 1044.292969 718.515625 1042.246094 717.636719 1040.125 C 714.496094 1040.714844 711.476562 1040.488281 708.929688 1039.777344 C 705.640625 1038.898438 703.097656 1037.292969 701.335938 1035.683594 C 697.722656 1032.414062 697.148438 1029.507812 697.566406 1029.296875 C 698.140625 1028.953125 699.652344 1031.132812 703.171875 1033.179688 C 706.558594 1035.226562 712.605469 1036.984375 718.398438 1034.574219 L 721.058594 1033.484375 L 721.902344 1036.394531 C 722.417969 1038.34375 723.621094 1040.316406 725.269531 1041.519531 C 726.914062 1042.6875 728.730469 1042.953125 730.835938 1042.152344 C 734.011719 1040.945312 736.363281 1037.730469 738.675781 1034.460938 L 740.4375 1031.898438 L 742.578125 1033.847656 C 744.570312 1035.628906 748.148438 1035.359375 750.652344 1034.019531 C 753.179688 1032.738281 754.976562 1030.40625 756.277344 1028.398438 C 758.800781 1024.207031 760.101562 1021.28125 760.734375 1021.546875 C 761.230469 1021.71875 761.175781 1024.800781 759.261719 1029.925781 C 758.191406 1032.414062 756.582031 1035.589844 753.003906 1037.960938 C 751.265625 1039.070312 749.160156 1039.914062 746.75 1040.140625 C 745.199219 1040.316406 743.460938 1040.085938 741.816406 1039.433594 C 741.050781 1040.582031 740.246094 1041.710938 739.230469 1042.859375 C 737.835938 1044.425781 736 1045.976562 733.742188 1047.011719 C 737.472656 1048.253906 743.421875 1047.546875 746.445312 1047.316406 C 750.957031 1046.914062 755.339844 1045.84375 759.625 1044.410156 C 772.230469 1006.453125 781.644531 967.699219 787.839844 928.175781 C 787.898438 927.851562 787.992188 927.582031 788.070312 927.316406 C 788.109375 926.242188 788.472656 925.171875 789.3125 924.160156 C 798.457031 913.214844 801.59375 898.753906 801.15625 884.789062 C 801.136719 883.011719 801.863281 881.730469 802.933594 880.925781 C 803.296875 880.390625 803.8125 879.929688 804.445312 879.527344 C 806.855469 878.019531 808.691406 875.398438 809.171875 872.566406 C 806.089844 871.992188 803.105469 871.246094 800.257812 870.421875 C 792.144531 867.992188 784.855469 864.683594 778.21875 860.933594 C 776.554688 859.996094 774.929688 859.023438 773.359375 858.027344 C 772.519531 857.492188 771.828125 856.976562 771.464844 856.820312 C 771.121094 856.648438 771.082031 856.648438 770.453125 856.554688 C 768.769531 856.515625 767.066406 856.457031 765.421875 856.382812 C 763.621094 856.285156 761.84375 856.113281 760.101562 855.882812 C 753.101562 854.871094 746.671875 852.957031 740.914062 850.355469 C 735.15625 847.773438 730.070312 844.558594 725.667969 841 C 721.289062 837.460938 717.269531 833.175781 715.398438 827.648438 C 714.957031 826.273438 714.632812 824.835938 714.554688 823.402344 C 714.460938 821.414062 714.59375 821.8125 714.554688 821.488281 C 714.515625 821.222656 714.285156 821.105469 714.078125 821.085938 L 713.921875 821.011719 L 713.023438 820.78125 C 712.449219 820.589844 711.875 820.339844 711.304688 820.148438 C 706.789062 818.273438 703.402344 815.214844 701.085938 812 C 696.34375 805.515625 695.464844 798.285156 696.132812 792.984375 C 696.800781 787.589844 698.582031 783.652344 700.1875 780.800781 C 703.496094 775.175781 705.984375 773.589844 706.347656 773.894531 C 706.921875 774.335938 705.351562 776.609375 703.210938 782.234375 C 702.160156 785.007812 701.070312 788.738281 700.914062 793.3125 C 700.800781 797.902344 701.890625 803.429688 705.890625 808.328125 C 707.820312 810.738281 710.5 812.84375 713.695312 813.992188 C 714.078125 814.125 714.460938 814.257812 714.898438 814.355469 C 715.570312 814.527344 716.238281 814.660156 716.90625 814.8125 C 718.707031 815.214844 720.351562 816.363281 721.019531 818.140625 C 721.730469 819.75 721.363281 822.523438 721.480469 822.789062 C 721.59375 823.632812 721.824219 824.472656 722.09375 825.335938 C 723.375 828.757812 726.453125 832.125 730.355469 835.109375 C 734.316406 838.171875 738.90625 840.945312 744.054688 843.125 C 749.21875 845.363281 754.976562 846.96875 761.136719 847.773438 C 762.703125 847.945312 764.253906 848.078125 765.859375 848.175781 C 767.601562 848.214844 769.378906 848.25 771.160156 848.308594 C 772.289062 848.347656 774.011719 848.75 775.214844 849.378906 C 776.441406 850.011719 777.148438 850.546875 777.855469 850.988281 C 779.289062 851.886719 780.800781 852.765625 782.332031 853.644531 C 788.472656 857.050781 795.300781 860.074219 802.667969 862.234375 C 805.554688 863.078125 808.558594 863.824219 811.636719 864.320312 C 812.421875 862.980469 813.820312 862.007812 815.828125 862.042969 C 831.132812 862.351562 866.273438 869.140625 872.566406 850.261719 C 872.664062 849.992188 872.796875 849.726562 872.929688 849.457031 C 872.355469 849.417969 871.820312 849.417969 871.226562 849.378906 C 861.050781 848.441406 852.710938 843.660156 847.984375 839.242188 C 843.164062 834.746094 841.519531 830.957031 842.09375 830.558594 C 842.761719 830.019531 845.460938 832.792969 850.453125 836.085938 C 855.386719 839.375 862.925781 842.953125 871.761719 843.757812 C 879.933594 844.503906 887.390625 842.683594 892.785156 840.542969 C 894.527344 839.203125 896.117188 837.597656 897.472656 835.777344 C 896 836.488281 894.433594 836.886719 892.863281 836.984375 C 889.34375 837.234375 885.824219 836.714844 882.207031 835.722656 C 874.976562 833.675781 867.976562 829.21875 861.605469 824.070312 C 855.789062 819.5 850.757812 814.527344 845.613281 811.847656 C 844.769531 811.90625 843.929688 811.980469 843.03125 812.078125 C 841.710938 812.25 840.484375 812.441406 838.976562 812.671875 C 838.171875 812.785156 837.023438 812.9375 835.628906 812.34375 C 834.863281 812.039062 834.152344 811.371094 833.753906 810.660156 C 833.445312 810.105469 833.21875 809.457031 833.21875 808.652344 C 833.042969 808.558594 832.871094 808.480469 832.816406 808.328125 C 832.605469 807.886719 833.101562 807.121094 834.152344 806.320312 C 834.613281 805.839844 835.1875 805.476562 835.628906 805.382812 C 835.683594 805.34375 835.761719 805.34375 835.820312 805.304688 C 835.992188 805.246094 836.125 805.132812 836.296875 805.074219 C 838.9375 803.910156 842.53125 803.257812 846.609375 802.992188 C 848.789062 802.835938 851.5625 803.507812 853.167969 804.539062 C 854.871094 805.515625 856.019531 806.472656 856.996094 807.351562 C 858.621094 808.769531 859.578125 809.972656 859.636719 810.699219 C 859.84375 810.871094 859.980469 810.96875 859.941406 811.0625 C 859.902344 811.199219 859.636719 811.3125 859.273438 811.371094 C 858.925781 811.542969 858.390625 811.578125 857.625 811.464844 C 856.898438 811.464844 856.019531 811.464844 854.949219 811.464844 C 855.292969 811.734375 855.65625 811.980469 855.980469 812.25 C 858.925781 814.621094 862.007812 817.128906 865.164062 819.632812 C 871.324219 824.625 877.519531 828.683594 883.757812 830.730469 C 886.800781 831.761719 889.957031 832.335938 892.632812 832.296875 C 895.332031 832.296875 897.1875 831.4375 898.71875 829.695312 C 900.265625 828.050781 901.339844 825.964844 902.199219 824.167969 C 903.078125 822.351562 903.671875 820.6875 904.167969 819.347656 C 905.085938 816.628906 905.527344 815.023438 905.929688 815.023438 C 906.292969 815.0625 906.617188 816.726562 906.3125 819.804688 C 906.160156 821.316406 905.8125 823.191406 905.144531 825.296875 C 904.875 826.175781 904.550781 827.113281 904.148438 828.089844 C 904.742188 827.953125 905.375 827.917969 906.042969 828.011719 C 925.382812 830.957031 923.335938 799.585938 917.3125 789.542969 C 917.042969 789.0625 916.871094 788.625 916.738281 788.203125 C 916.429688 787.6875 916.203125 787.152344 916.105469 786.597656 C 915.703125 786.347656 915.457031 786.0625 915.398438 785.714844 C 915.300781 784.953125 915.933594 784.1875 916.601562 783.269531 C 917.234375 782.445312 918.113281 781.335938 919.050781 780.128906 C 919.148438 779.996094 919.242188 779.824219 919.378906 779.691406 Z M 932.003906 519.910156 C 937.628906 500.605469 939.921875 479.773438 922.898438 483.867188 C 913.5625 486.085938 902.695312 499.132812 895.101562 505.0625 C 888.234375 510.4375 881.269531 515.71875 874.269531 520.902344 C 857.683594 533.203125 840.753906 544.929688 823.460938 556.234375 C 829.695312 559.488281 835.820312 563.085938 841.863281 566.796875 C 850.394531 572.054688 860.035156 577.738281 868.816406 584.375 C 877.386719 580.589844 883.757812 573.683594 887.164062 566.527344 C 888.136719 564.519531 888.902344 562.511719 889.4375 560.464844 C 889.746094 559.429688 889.917969 558.453125 890.148438 557.382812 C 890.148438 557.289062 890.222656 557.117188 890.242188 556.90625 C 888.867188 557.652344 887.566406 558.226562 886.320312 558.820312 C 882.515625 560.519531 878.785156 561.726562 875.550781 562.261719 C 868.96875 563.371094 864.953125 561.535156 865.203125 560.867188 C 865.335938 560.023438 869.125 560.292969 874.613281 558.378906 C 877.347656 557.441406 880.523438 556.007812 884.027344 554.132812 C 887.601562 552.21875 891.449219 550.210938 891.886719 547.359375 C 891.945312 546.917969 891.945312 546.519531 891.886719 546.15625 L 890.988281 542.042969 L 895.023438 542.710938 C 898.316406 543.246094 901.757812 541.773438 904.167969 539.667969 C 906.578125 537.585938 908.128906 534.847656 909.144531 532.417969 C 911.113281 527.464844 911.554688 523.886719 912.375 523.964844 C 913.027344 523.964844 914.019531 527.542969 912.816406 533.566406 C 912.144531 536.511719 910.769531 540.207031 907.667969 543.378906 C 905.257812 545.828125 901.664062 547.972656 897.453125 548.335938 C 897.453125 548.375 897.453125 548.429688 897.417969 548.46875 C 897.320312 549.101562 897.070312 549.710938 896.804688 550.285156 C 897.070312 550.210938 897.339844 550.152344 897.550781 550.039062 C 898.527344 549.710938 899.464844 549.347656 900.363281 549.003906 C 902.238281 548.335938 903.976562 547.472656 905.640625 546.671875 C 919.089844 539.535156 926.648438 529.492188 931.105469 521.609375 C 931.429688 521.039062 931.714844 520.480469 932.003906 519.910156 Z M 939.636719 474.722656 C 953.621094 489.894531 944.207031 522.644531 937.339844 538.332031 C 926.589844 562.835938 911.171875 590.269531 890.070312 607.390625 C 893.148438 612.976562 895.0625 619.171875 895.464844 626.039062 C 929.402344 642.605469 943.824219 698.675781 914.019531 725.304688 C 920.582031 737.664062 926.1875 750.519531 930.109375 763.945312 C 933.074219 774.105469 932.921875 779.59375 927.125 786.558594 C 936.402344 804.941406 931.90625 837.863281 907.996094 838.035156 C 902.410156 847.945312 892.421875 854.335938 881.234375 855.617188 C 872.527344 875.261719 847.105469 873.828125 826.808594 872.621094 L 826.921875 873.425781 C 824.167969 873.734375 821.527344 873.789062 818.945312 873.695312 C 818.199219 878.917969 815.558594 883.640625 811.21875 886.953125 C 811.273438 902.371094 807.125 917.464844 797.617188 929.6875 C 797.617188 930.050781 797.617188 930.433594 797.539062 930.835938 C 791.285156 970.644531 781.777344 1009.707031 769.054688 1047.910156 C 768.941406 1048.214844 768.808594 1048.484375 768.671875 1048.710938 C 768.480469 1050.53125 767.429688 1052.230469 765.363281 1053.035156 C 755.378906 1056.785156 737.894531 1061.109375 727.488281 1055.121094 C 726.683594 1056.039062 725.515625 1056.726562 723.964844 1056.863281 C 693.683594 1059.273438 666.234375 1047.507812 641.957031 1030.234375 C 641.804688 1030.136719 641.707031 1030.023438 641.613281 1029.925781 C 622.332031 1028.53125 601.59375 1015.90625 586.597656 1004.582031 C 567.828125 990.480469 561.441406 971.21875 550.480469 951.359375 C 550.421875 951.285156 550.421875 951.1875 550.34375 951.132812 C 549.351562 950.328125 548.679688 949.085938 548.851562 947.304688 C 550.152344 933.207031 555.683594 920.542969 565.285156 910.175781 C 563.351562 890.300781 572.230469 870.652344 585.410156 856.191406 C 587.761719 837.234375 593.882812 819.613281 604.195312 803.507812 C 601.515625 781.832031 616.226562 758.417969 629.425781 742.273438 C 631.492188 716.160156 637.328125 691.140625 647.3125 666.863281 C 647.640625 666.097656 648.078125 665.449219 648.613281 664.949219 C 643.792969 635.222656 644.023438 605.074219 650.222656 575.460938 C 655.386719 550.785156 664.816406 514.742188 683.8125 496.628906 C 700.226562 481.019531 728.558594 490.296875 740.34375 507.246094 C 747.554688 517.59375 751.457031 530.699219 753.597656 544.394531 C 774.566406 538.730469 794.269531 542.921875 812.957031 551.148438 C 812.957031 551.148438 812.957031 551.148438 812.976562 551.148438 C 842.1875 532.191406 870.519531 511.96875 897.742188 490.257812 C 907.363281 482.566406 927.429688 461.390625 939.636719 474.722656 Z M 898.355469 558.417969 C 898.316406 558.453125 898.316406 558.492188 898.316406 558.492188 L 898.257812 558.800781 C 898.007812 559.964844 897.78125 561.304688 897.472656 562.566406 C 896.804688 565.113281 895.90625 567.636719 894.777344 570.144531 C 891.121094 577.910156 884.753906 585.371094 875.972656 590.304688 C 879.03125 593.042969 881.863281 595.929688 884.390625 599.011719 C 900.324219 585.484375 911.015625 566.625 921.023438 548.46875 C 921.691406 547.265625 922.667969 545.253906 923.777344 542.632812 C 919.914062 546.554688 915.1875 550.304688 909.371094 553.597656 C 907.460938 554.589844 905.488281 555.644531 903.386719 556.464844 C 902.292969 556.90625 901.222656 557.308594 900.132812 557.746094 C 899.289062 558.054688 898.527344 558.320312 898.355469 558.417969 " fill-opacity="1" fill-rule="nonzero"/></g><path fill="#000000" d="M 912.28125 776.382812 C 914.019531 782.769531 914.058594 788.890625 912.414062 793.214844 C 910.769531 797.578125 908.070312 799.089844 907.632812 798.550781 C 906.960938 798.015625 908.207031 795.875 908.53125 792.257812 C 908.96875 788.757812 908.359375 783.441406 906.847656 778.007812 C 906.484375 776.746094 906.082031 775.980469 905.414062 775.273438 C 904.742188 774.507812 903.671875 773.722656 902.640625 772.957031 C 900.628906 771.445312 898.753906 770.242188 897.148438 769.378906 C 893.894531 767.601562 891.484375 767.238281 891.429688 766.394531 C 891.3125 765.6875 894.085938 764.558594 898.527344 765.628906 C 900.667969 766.128906 903.117188 767.160156 905.527344 768.613281 C 906.695312 769.304688 907.996094 770.050781 909.371094 771.351562 C 910.808594 772.6875 911.78125 774.660156 912.28125 776.382812 " fill-opacity="1" fill-rule="nonzero"/><path fill="#000000" d="M 902.179688 800.425781 C 903.003906 801.59375 903.039062 802.570312 902.601562 803.027344 C 902.140625 803.527344 901.300781 803.601562 900.226562 803.601562 C 899.117188 803.566406 897.722656 803.566406 895.445312 802.972656 C 894.335938 802.628906 892.882812 802.167969 891.351562 800.714844 C 889.785156 799.375 888.675781 796.695312 888.675781 794.667969 C 888.636719 794.496094 888.675781 794.363281 888.636719 794.191406 C 888.003906 794.285156 887.335938 794.402344 886.722656 794.402344 C 884.886719 794.496094 883.183594 794.285156 881.613281 793.960938 C 878.457031 793.253906 876.046875 791.972656 874.230469 790.765625 C 870.652344 788.335938 869.125 786.078125 869.679688 784.914062 C 870.253906 783.707031 873.0625 783.878906 876.8125 784.511719 C 880.523438 785.125 885.117188 785.8125 888.941406 784.207031 C 889.476562 784.015625 890.109375 783.765625 891.007812 783.652344 C 891.925781 783.535156 893.398438 783.382812 895.292969 784.433594 C 897.148438 785.488281 898.007812 787.761719 898.046875 788.664062 C 898.179688 789.636719 898.144531 790 898.144531 790.613281 C 897.988281 792.71875 897.589844 794.019531 897.511719 794.632812 C 897.453125 795.222656 897.242188 795.050781 897.320312 795.433594 C 897.320312 795.757812 897.855469 796.332031 898.488281 796.90625 C 899.789062 798.015625 901.394531 799.222656 902.179688 800.425781 " fill-opacity="1" fill-rule="nonzero"/><path fill="#000000" d="M 890.894531 644.75 C 891.21875 645.324219 889.535156 646.796875 887.601562 649.648438 C 885.652344 652.421875 883.453125 656.914062 883.488281 662.195312 L 883.507812 666.460938 L 879.492188 664.492188 C 878.957031 664.222656 878.019531 664.183594 876.984375 664.644531 C 876.046875 665.046875 875.035156 665.925781 874.078125 667.167969 C 872.929688 668.640625 871.554688 670.535156 870.75 671.914062 C 869.945312 673.367188 869.714844 674.417969 869.753906 676.027344 C 869.851562 677.574219 870.175781 679.355469 870.425781 680.960938 C 870.730469 682.570312 870.960938 684.042969 871.226562 685.417969 C 872.222656 690.910156 872.890625 694.390625 872.164062 694.660156 C 871.457031 694.925781 869.410156 691.902344 867.363281 686.527344 C 866.828125 685.152344 866.332031 683.640625 865.871094 681.996094 C 865.394531 680.351562 864.859375 678.683594 864.589844 676.464844 C 864.226562 674.363281 864.683594 671.417969 865.871094 669.3125 C 867.078125 667.09375 868.1875 665.582031 869.640625 663.609375 C 870.921875 662.042969 872.605469 660.398438 874.902344 659.5 C 876.011719 659.019531 877.3125 658.789062 878.632812 658.847656 C 879.757812 653.492188 882.648438 649.589844 885.152344 647.445312 C 888.195312 644.789062 890.625 644.289062 890.894531 644.75 " fill-opacity="1" fill-rule="nonzero"/><path fill="#000000" d="M 884.789062 800.847656 C 885.230469 802.628906 885.328125 803.660156 884.960938 803.832031 C 884.582031 804.003906 883.851562 803.257812 882.78125 801.765625 C 882.304688 801.097656 881.75 800.21875 881.136719 799.242188 C 881.097656 799.242188 881.078125 799.242188 881.042969 799.28125 C 880.410156 799.453125 879.53125 799.679688 878.6875 799.777344 C 875.28125 800.351562 870.921875 800.3125 866.40625 798.4375 C 864.1875 797.460938 861.875 796.027344 860.113281 793.847656 C 858.21875 791.742188 857.050781 788.96875 856.460938 786.347656 C 855.847656 783.707031 855.542969 781.394531 855.3125 778.925781 C 855.082031 776.515625 855.082031 773.972656 855.578125 771.542969 C 856.078125 769.132812 857.1875 766.796875 858.699219 765.09375 C 860.171875 763.371094 861.910156 762.207031 863.59375 761.460938 C 867 759.929688 870.078125 760.0625 871.992188 760.597656 C 873.90625 761.136719 874.746094 761.9375 874.613281 762.28125 C 874.402344 763.105469 870.289062 761.898438 865.507812 764.980469 C 863.15625 766.53125 861.144531 768.976562 860.707031 772.480469 C 860.476562 774.238281 860.535156 776.210938 860.800781 778.351562 C 861.109375 780.492188 861.453125 782.941406 861.949219 785.046875 C 863.480469 793.578125 872.625 795.96875 878.324219 795.835938 C 879.089844 795.835938 879.703125 795.757812 880.503906 795.722656 C 880.925781 795.703125 881.710938 795.605469 882.570312 796.105469 C 883.507812 796.640625 883.71875 797.367188 883.816406 797.671875 C 884.253906 798.917969 884.5625 799.949219 884.789062 800.847656 " fill-opacity="1" fill-rule="nonzero"/><path fill="#000000" d="M 871.628906 749.445312 C 871.761719 750.210938 869.714844 751.089844 866.714844 751.417969 C 865.257812 751.664062 863.613281 751.820312 862.273438 752.390625 C 860.878906 752.929688 859.460938 753.867188 858.027344 755.242188 C 856.632812 756.621094 855.292969 758.1875 854.050781 759.625 C 852.804688 761.058594 851.828125 762.300781 851.066406 763.410156 C 849.515625 765.59375 848.960938 767.292969 848.15625 767.292969 C 847.410156 767.390625 846.472656 765.191406 847.410156 761.804688 C 847.851562 760.160156 848.691406 758.359375 849.820312 756.582031 C 850.929688 754.804688 852.269531 752.929688 854.144531 751.148438 C 856.019531 749.351562 858.390625 747.898438 860.839844 747.363281 C 863.328125 746.84375 865.335938 747.171875 866.828125 747.4375 C 869.851562 748.105469 871.496094 748.679688 871.628906 749.445312 " fill-opacity="1" fill-rule="nonzero"/><path fill="#000000" d="M 851.964844 851.351562 C 852.058594 851.734375 851.371094 852.328125 849.898438 852.996094 C 848.445312 853.664062 846.246094 854.546875 843.070312 854.640625 C 841.519531 854.679688 839.605469 854.375 837.828125 853.53125 C 836.027344 852.691406 834.117188 851.332031 832.949219 849.015625 C 832.71875 848.539062 832.507812 847.984375 832.335938 847.503906 C 830.328125 848.269531 828.128906 848.652344 825.910156 848.539062 C 820.917969 848.347656 816.496094 846.109375 813.550781 842.992188 C 810.644531 839.871094 809.304688 836.257812 808.828125 833.273438 C 807.925781 827.171875 809.898438 823.765625 810.527344 823.957031 C 811.371094 824.128906 811.046875 827.574219 812.691406 832.296875 C 813.550781 834.652344 814.96875 837.253906 817.242188 839.300781 C 819.445312 841.308594 822.695312 842.78125 826.121094 842.914062 C 827.820312 842.992188 829.46875 842.683594 830.941406 842.148438 L 831.742188 841.824219 C 832.164062 841.671875 833.007812 841.441406 833.847656 841.613281 C 834.691406 841.746094 835.492188 842.246094 835.953125 842.761719 C 836.429688 843.257812 836.660156 843.71875 836.871094 844.082031 C 837.195312 844.902344 837.292969 845.457031 837.425781 845.9375 C 837.5 846.378906 837.558594 846.511719 837.675781 846.796875 C 838.476562 848.882812 841.15625 850.316406 843.355469 850.660156 C 845.671875 851.0625 847.890625 850.851562 849.417969 850.851562 C 850.96875 850.851562 851.867188 850.988281 851.964844 851.351562 " fill-opacity="1" fill-rule="nonzero"/><path fill="#000000" d="M 840.371094 706.976562 C 840.886719 710.191406 841.175781 713.882812 840.886719 718.207031 C 840.582031 722.417969 839.644531 727.273438 837.0625 731.828125 C 835.128906 735.308594 832.375 738.027344 829.867188 740.109375 C 828.492188 741.183594 827.6875 742.042969 825.773438 743.210938 C 824.839844 743.824219 823.328125 744.167969 821.890625 743.859375 C 821.125 745.199219 820.113281 746.269531 819.117188 746.996094 C 817.378906 748.296875 815.523438 748.816406 814.03125 748.988281 C 810.96875 749.179688 809.574219 747.933594 809.746094 747.570312 C 809.859375 747.035156 811.371094 747.207031 813.457031 746.328125 C 815.425781 745.601562 818.277344 743.25 818.46875 740.074219 L 822.292969 739.730469 C 822.292969 739.730469 822.425781 739.671875 822.5625 739.441406 C 822.636719 739.328125 822.695312 739.191406 822.734375 739.097656 L 822.753906 739.058594 C 822.828125 739.058594 822.867188 739.039062 822.867188 739.039062 C 822.964844 738.964844 823.058594 738.925781 823.230469 738.792969 C 823.84375 738.390625 825.203125 737.050781 826.273438 736.074219 C 828.585938 733.96875 830.632812 731.769531 832.144531 729.054688 C 836.164062 721.746094 836.257812 713.175781 836.390625 707.378906 C 836.390625 704.511719 835.953125 702.367188 835.398438 700.914062 C 834.863281 699.519531 834.210938 698.734375 834.480469 698.410156 C 834.691406 698.101562 835.820312 698.273438 837.195312 699.710938 C 838.613281 701.085938 839.835938 703.765625 840.371094 706.976562 " fill-opacity="1" fill-rule="nonzero"/><path fill="#000000" d="M 825.507812 662.675781 C 827.996094 667.933594 827.820312 671.472656 827.25 671.589844 C 826.539062 671.742188 825.46875 668.660156 822.464844 664.492188 C 819.519531 660.359375 814.183594 655.136719 806.625 652.726562 L 806.933594 647.445312 C 806.761719 647.503906 807.085938 647.292969 807.160156 646.625 C 807.160156 646.261719 807.160156 646.203125 806.988281 645.820312 C 806.816406 645.457031 806.589844 645.09375 806.226562 644.691406 C 804.886719 643.316406 802.4375 641.785156 800.464844 640.503906 C 798.417969 639.222656 796.335938 638.167969 794.324219 637.328125 C 790.308594 635.605469 786.464844 634.9375 783.152344 634.917969 C 776.441406 634.878906 772.363281 636.753906 771.964844 635.988281 C 771.582031 635.414062 775.214844 632.066406 782.886719 630.917969 C 786.65625 630.421875 791.417969 630.765625 796.164062 632.46875 C 798.574219 633.308594 800.964844 634.398438 803.296875 635.757812 C 804.484375 636.429688 805.613281 637.15625 806.78125 637.921875 C 807.890625 638.722656 809.132812 639.566406 810.375 640.867188 C 811.046875 641.613281 811.675781 642.472656 812.15625 643.523438 C 812.613281 644.480469 812.882812 645.953125 812.746094 647.101562 C 812.691406 647.808594 812.480469 648.5 812.175781 649.207031 C 819.078125 652.765625 823.460938 658.3125 825.507812 662.675781 " fill-opacity="1" fill-rule="nonzero"/><path fill="#000000" d="M 769.4375 720.980469 C 769.4375 720.714844 769.476562 720.484375 769.515625 720.253906 C 767.410156 719.988281 765.285156 719.910156 763.316406 720.101562 C 762.683594 720.140625 762.054688 720.273438 761.402344 720.371094 C 761.480469 720.636719 761.5 720.925781 761.5 721.191406 C 761.765625 721.976562 761.84375 722.894531 761.574219 723.925781 C 761.480469 724.328125 761.441406 724.691406 761.382812 725.09375 C 761.402344 725.171875 761.480469 725.226562 761.5 725.304688 C 761.613281 725.4375 761.710938 725.574219 761.84375 725.628906 C 762.953125 726.414062 764.464844 726.566406 765.765625 726.644531 C 767.296875 726.703125 768.234375 726.910156 768.902344 725.878906 C 769.726562 724.691406 769.476562 722.320312 769.4375 720.980469 Z M 796.964844 730.03125 C 800.085938 737.835938 798.820312 743.019531 797.617188 743.058594 C 796.316406 743.210938 795.070312 739.230469 791.648438 734.199219 C 788.375 740.53125 778.296875 745.734375 772.402344 746.367188 C 771.027344 746.539062 769.6875 746.5 768.40625 746.40625 C 767.144531 746.539062 765.898438 746.539062 764.695312 746.425781 C 752.203125 745.296875 743.554688 734.371094 744.4375 722.050781 C 744.4375 721.878906 744.453125 721.746094 744.492188 721.574219 C 743.5 721.421875 742.5625 721.25 741.644531 720.980469 C 737.625 719.871094 734.757812 718.09375 733.015625 716.601562 C 731.292969 715.089844 730.699219 713.882812 731.027344 713.347656 C 731.808594 712.144531 736.09375 714.019531 742.789062 714.285156 C 744.4375 714.34375 746.234375 714.285156 748.109375 714.054688 C 750.023438 713.808594 751.894531 713.347656 754.171875 712.679688 C 756.410156 712.046875 759.070312 711.167969 762.167969 710.765625 C 765.269531 710.289062 768.480469 710.324219 771.734375 710.804688 C 778.179688 711.761719 784.015625 714.554688 788.339844 718.207031 C 792.660156 721.878906 795.433594 726.203125 796.964844 730.03125 " fill-opacity="1" fill-rule="nonzero"/><path fill="#000000" d="M 795.53125 760.675781 C 796.144531 761 794.9375 765.113281 790.480469 770.277344 C 786.082031 775.40625 778.21875 781.394531 767.90625 783.804688 C 764.351562 784.644531 760.847656 785.085938 757.480469 784.96875 C 755.683594 785.007812 753.769531 784.683594 751.972656 783.878906 C 751.054688 783.441406 750.117188 782.828125 749.351562 781.890625 C 749.277344 781.792969 749.257812 781.738281 749.179688 781.621094 C 744.933594 783.269531 740.914062 782.90625 738.410156 782.0625 C 735.253906 780.992188 733.972656 779.519531 734.21875 779.117188 C 734.488281 778.65625 736.152344 779.191406 738.90625 779.289062 C 741.625 779.421875 745.699219 778.945312 749.179688 776.382812 L 751.703125 774.507812 L 752.929688 778.3125 C 753.003906 778.542969 753.140625 778.714844 754.078125 779.117188 C 754.976562 779.460938 756.144531 779.652344 757.464844 779.558594 C 760.371094 779.480469 763.449219 779.058594 766.605469 778.3125 C 775.636719 776.210938 782.945312 771.445312 787.628906 767.464844 C 792.394531 763.449219 794.804688 760.234375 795.53125 760.675781 " fill-opacity="1" fill-rule="nonzero"/><path fill="#000000" d="M 790.941406 744.167969 C 791.378906 744.722656 788.703125 747.839844 782.945312 750.957031 C 780.054688 752.488281 776.382812 753.941406 772.136719 754.898438 C 767.90625 755.738281 763.011719 756.621094 757.519531 755.148438 C 752.03125 753.539062 748.070312 749.789062 745.5625 746.097656 C 742.960938 742.3125 741.679688 738.503906 740.878906 735.386719 C 739.40625 729.054688 739.40625 725.132812 740.113281 724.921875 C 740.914062 724.730469 742.3125 728.480469 744.664062 734.085938 C 745.871094 736.859375 747.402344 740.074219 749.753906 742.980469 C 752.070312 745.925781 755.242188 748.605469 759.070312 749.714844 C 762.859375 750.785156 767.296875 750.328125 771.160156 749.789062 C 775.042969 749.21875 778.488281 748.28125 781.335938 747.304688 C 787.058594 745.371094 790.480469 743.476562 790.941406 744.167969 " fill-opacity="1" fill-rule="nonzero"/><path fill="#000000" d="M 781.164062 819.402344 C 782.714844 822.425781 784.453125 823.996094 784.054688 824.742188 C 783.746094 825.371094 780.898438 824.933594 777.914062 821.757812 C 774.910156 818.695312 772.691406 812.613281 773.1875 806.320312 C 773.1875 805.917969 773.300781 805.515625 773.339844 805.113281 C 772.058594 805.019531 770.777344 804.941406 769.609375 804.808594 C 767.46875 804.578125 765.460938 804.101562 763.851562 803.335938 C 762.246094 802.570312 761.136719 801.460938 760.636719 800.582031 C 760.179688 799.644531 760.238281 799.050781 760.503906 798.878906 C 761.136719 798.515625 762.417969 799.644531 764.960938 799.890625 C 766.222656 800.042969 767.871094 800.042969 769.820312 799.949219 C 771.792969 799.851562 774.066406 799.757812 776.441406 799.71875 L 779.597656 799.679688 L 779.195312 802.933594 C 779.023438 804.136719 778.886719 805.382812 778.832031 806.644531 C 778.449219 811.945312 779.558594 816.4375 781.164062 819.402344 " fill-opacity="1" fill-rule="nonzero"/><path fill="#000000" d="M 708.050781 713.136719 L 708.050781 713.101562 C 707.992188 713.042969 707.992188 713.082031 708.050781 713.136719 Z M 769.820312 666.863281 C 772.15625 669.234375 772.902344 670.976562 772.632812 671.1875 C 771.984375 671.855469 767.371094 665.925781 756.542969 664.070312 C 751.304688 663.171875 744.703125 663.246094 737.796875 664.949219 C 730.96875 666.5 724.769531 671.148438 720.140625 677.9375 C 716.699219 682.894531 714.230469 688.363281 712.183594 693.644531 C 711.167969 696.226562 710.5 698.636719 710.710938 700.644531 C 710.84375 702.636719 711.914062 704.394531 713.175781 705.007812 L 717.0625 706.84375 L 713.578125 709.082031 C 711.839844 710.230469 710.269531 711.492188 708.855469 712.8125 C 708.664062 713.042969 708.453125 713.214844 708.320312 713.367188 C 708.566406 713.578125 708.890625 713.808594 709.257812 714.054688 C 712.144531 715.949219 714.785156 717.289062 717.003906 718.304688 L 720.964844 720.101562 L 716.871094 720.769531 C 712.910156 721.382812 710.902344 723.066406 710.574219 722.664062 C 710.367188 722.492188 711.074219 721.152344 713.140625 719.816406 C 711.339844 719.164062 709.410156 718.359375 707.324219 717.269531 C 706.617188 716.753906 705.449219 716.621094 704.339844 714.648438 C 703.804688 713.617188 704.109375 712.105469 704.570312 711.398438 C 705.046875 710.632812 705.449219 710.269531 705.773438 709.867188 C 706.578125 708.96875 707.496094 708.089844 708.453125 707.207031 C 706.882812 705.582031 705.910156 703.4375 705.621094 701.21875 C 705.179688 697.796875 706.117188 694.621094 707.09375 691.769531 C 709.101562 686.183594 711.648438 680.292969 715.492188 674.707031 C 718.113281 670.9375 721.25 667.53125 724.902344 664.988281 C 728.519531 662.367188 732.671875 660.703125 736.59375 659.863281 C 744.398438 658.253906 751.628906 658.65625 757.425781 660.207031 C 763.257812 661.738281 767.46875 664.511719 769.820312 666.863281 " fill-opacity="1" fill-rule="nonzero"/><path fill="#000000" d="M 760.734375 914.824219 C 763.257812 918.535156 766.03125 920.046875 765.667969 920.8125 C 765.535156 921.480469 761.84375 921.328125 757.730469 917.445312 C 755.742188 915.53125 753.734375 912.605469 752.910156 908.855469 C 752.125 905.507812 752.375 901.625 753.808594 897.949219 C 751.800781 897.777344 749.792969 897.375 747.957031 896.496094 C 744.664062 894.890625 742.695312 892.25 741.71875 889.933594 C 739.75 885.113281 741.375 882.035156 741.949219 882.265625 C 742.753906 882.339844 742.789062 885.078125 745.027344 888.136719 C 746.101562 889.628906 747.785156 891.140625 749.886719 891.886719 C 752.070312 892.652344 754.917969 892.613281 758.304688 892.441406 L 763.929688 892.171875 L 760.636719 896.898438 C 760.179688 897.605469 759.738281 898.351562 759.355469 899.15625 C 758.035156 902.007812 757.652344 905.183594 758.035156 907.898438 C 758.398438 910.632812 759.527344 913.023438 760.734375 914.824219 " fill-opacity="1" fill-rule="nonzero"/><path fill="#000000" d="M 729.628906 868.414062 C 732.710938 871.511719 735.617188 872.566406 735.425781 873.367188 C 735.386719 874.058594 731.808594 874.496094 727.125 871.496094 C 724.828125 869.984375 722.398438 867.496094 720.886719 864.054688 C 719.644531 861.242188 719.109375 857.816406 719.507812 854.335938 C 716.46875 853.609375 713.789062 852.136719 711.78125 850.28125 C 709.007812 847.851562 707.496094 844.789062 706.84375 842.207031 C 705.582031 836.886719 707.246094 833.808594 707.898438 833.980469 C 708.71875 834.078125 708.703125 837.097656 710.539062 840.886719 C 711.476562 842.761719 712.910156 844.769531 715.050781 846.339844 C 717.175781 847.867188 719.988281 849.015625 722.933594 849.152344 L 726.453125 849.285156 L 725.515625 852.765625 L 725.34375 853.398438 C 724.597656 856.421875 724.867188 859.539062 725.746094 862.140625 C 726.605469 864.722656 728.078125 866.828125 729.628906 868.414062 " fill-opacity="1" fill-rule="nonzero"/><path fill="#000000" d="M 722.664062 643.8125 C 728.15625 643.753906 731.332031 645.054688 731.234375 645.761719 C 731.140625 646.605469 727.925781 646.757812 723.105469 647.773438 C 718.246094 648.746094 711.78125 650.949219 705.582031 655.042969 C 699.386719 659.117188 694.792969 664.183594 691.980469 668.242188 C 690.546875 670.210938 689.53125 672.085938 688.632812 673.214844 C 687.753906 674.417969 687.085938 674.992188 686.722656 674.859375 C 686.394531 674.726562 686.359375 673.828125 686.625 672.355469 C 686.929688 670.878906 687.371094 668.777344 688.539062 666.289062 C 690.679688 661.257812 695.425781 654.964844 702.464844 650.316406 C 709.523438 645.667969 717.195312 643.8125 722.664062 643.8125 " fill-opacity="1" fill-rule="nonzero"/><path fill="#000000" d="M 722.359375 770.910156 C 726.03125 774.601562 729.1875 776.132812 728.882812 776.9375 C 728.730469 777.605469 724.828125 777.414062 719.816406 773.988281 C 714.898438 770.679688 709.066406 763.546875 708.128906 753.941406 C 707.859375 751.457031 707.992188 748.871094 708.703125 746.40625 C 709.101562 745.027344 709.734375 743.6875 710.613281 742.484375 C 710.136719 741.949219 709.734375 741.410156 709.503906 740.839844 C 708.757812 739.230469 708.585938 737.664062 708.796875 736.191406 C 709.292969 733.03125 711.113281 731.386719 712.449219 730.257812 C 715.320312 728.15625 717.269531 727.8125 717.578125 728.210938 C 717.941406 728.710938 716.429688 730.125 714.652344 732.441406 C 713.808594 733.53125 712.984375 735.136719 713.082031 736.515625 C 713.121094 737.261719 713.351562 738.0625 713.714844 738.65625 C 714.152344 739.269531 714.59375 739.5 714.996094 739.5 L 721.328125 739.765625 L 716.125 744.089844 C 714.191406 745.734375 713.292969 749.410156 713.75 753.40625 C 714.460938 761.058594 718.667969 767.292969 722.359375 770.910156 " fill-opacity="1" fill-rule="nonzero"/><path fill="#000000" d="M 688.996094 721.382812 L 683.71875 723.832031 C 680.636719 725.226562 678.496094 728.289062 677.175781 731.386719 C 675.835938 734.46875 675.148438 737.71875 675.070312 740.109375 C 674.976562 742.539062 675.703125 744.359375 676.449219 745.5625 C 677.175781 746.730469 677.84375 747.34375 677.671875 747.707031 C 677.578125 748.011719 676.46875 748.105469 674.9375 747.074219 C 673.425781 746.058594 671.628906 743.6875 671.148438 740.398438 C 670.691406 737.125 671.09375 733.53125 672.394531 729.550781 C 673.332031 726.777344 674.976562 723.621094 677.671875 721.191406 C 674.269531 717.539062 673.539062 712.601562 674.171875 708.71875 C 674.976562 704.167969 677.15625 700.820312 678.992188 698.332031 C 680.789062 695.902344 682.933594 693.816406 684.980469 693.28125 C 687.066406 692.746094 688.136719 693.644531 687.964844 693.949219 C 687.867188 694.390625 686.929688 694.429688 685.917969 695.289062 C 684.828125 696.171875 683.679688 697.835938 682.378906 700.472656 C 681.058594 703.039062 679.625 706.078125 679.316406 709.390625 C 678.992188 712.546875 680.160156 716.390625 682.78125 718.167969 C 683.046875 718.359375 683.335938 718.53125 683.679688 718.703125 L 688.996094 721.382812 " fill-opacity="1" fill-rule="nonzero"/><path fill="#000000" d="M 594.765625 956.679688 L 590.078125 959.796875 L 589.636719 960.140625 C 586.613281 962.167969 584.683594 965.535156 584.109375 968.710938 C 583.515625 971.847656 584.242188 974.871094 585.410156 977.207031 C 587.820312 981.910156 591.28125 983.574219 590.917969 984.339844 C 590.765625 984.683594 589.734375 984.742188 588.03125 984.109375 C 586.347656 983.480469 584.011719 982.007812 582.042969 979.328125 C 580.054688 976.707031 578.425781 972.59375 578.964844 967.964844 C 579.328125 964.5625 580.800781 961.003906 583.402344 958.132812 C 582.675781 957.691406 581.890625 957.214844 581.203125 956.660156 C 579.15625 955.148438 577.375 952.46875 577.316406 949.660156 C 577.28125 946.902344 578.082031 945.125 578.753906 943.402344 C 579.519531 941.644531 580.4375 940.132812 581.394531 938.90625 C 585.351562 933.875 589.3125 932.765625 589.5625 933.378906 C 590.039062 934.085938 587.1875 936.324219 584.722656 941.050781 C 584.109375 942.21875 583.574219 943.519531 583.113281 944.992188 C 582.710938 946.445312 582.3125 948.1875 582.464844 949.277344 C 582.636719 950.386719 583.25 951.324219 584.550781 952.296875 C 585.851562 953.234375 587.628906 954.039062 589.597656 954.785156 L 594.765625 956.679688 " fill-opacity="1" fill-rule="nonzero"/></svg>