<svg xmlns="http://www.w3.org/2000/svg" xmlns:xlink="http://www.w3.org/1999/xlink" width="2000" viewBox="0 0 1500 1499.999933" height="2000" preserveAspectRatio="xMidYMid meet" version="1.0"><defs><g/><clipPath id="ac117d24c7"><path d="M 548.523438 470 L 947 470 L 947 1059 L 548.523438 1059 Z M 548.523438 470 " clip-rule="nonzero"/></clipPath><clipPath id="55a7131e29"><rect x="0" width="688" y="0" height="416"/></clipPath><clipPath id="41f6a2607e"><rect x="0" width="594" y="0" height="787"/></clipPath><clipPath id="2accf073c6"><rect x="0" width="803" y="0" height="714"/></clipPath><clipPath id="1d65cebb8c"><rect x="0" width="796" y="0" height="731"/></clipPath><clipPath id="6259a841f3"><rect x="0" width="565" y="0" height="776"/></clipPath></defs><g transform="matrix(1, 0, 0, 1, 386, 60)"><g clip-path="url(#55a7131e29)"><g fill="#000000" fill-opacity="1"><g transform="translate(119.927038, 346.868323)"><g><path d="M 58.484375 10.921875 C 53.378906 13.390625 48.203125 14.03125 42.953125 12.84375 C 37.710938 11.664062 33.425781 9.40625 30.09375 6.0625 C 25.625 1.539062 19.804688 -5.851562 12.640625 -16.125 C 5.484375 -26.394531 -0.664062 -36.863281 -5.8125 -47.53125 C -14.5625 -65.625 -18.050781 -79.960938 -16.28125 -90.546875 C -14.945312 -98.804688 -11.3125 -106.28125 -5.375 -112.96875 C 0.550781 -119.65625 7.914062 -125.128906 16.71875 -129.390625 C 23.675781 -132.753906 30.851562 -135.070312 38.25 -136.34375 C 52.800781 -138.988281 64.875 -137.285156 74.46875 -131.234375 C 84.0625 -125.191406 91.550781 -116.601562 96.9375 -105.46875 C 104.632812 -89.550781 106.207031 -75.34375 101.65625 -62.84375 C 97.101562 -50.351562 87.332031 -40.484375 72.34375 -33.234375 C 70.476562 -32.335938 67.617188 -31.148438 63.765625 -29.671875 C 65.578125 -27.109375 67.117188 -24.515625 68.390625 -21.890625 C 75.703125 -6.742188 72.398438 4.191406 58.484375 10.921875 Z M 55.21875 -62.734375 C 60.320312 -65.191406 63.769531 -69.097656 65.5625 -74.453125 C 67.363281 -79.804688 67.03125 -85.035156 64.5625 -90.140625 C 62.175781 -95.078125 58.328125 -98.503906 53.015625 -100.421875 C 47.710938 -102.335938 42.507812 -102.066406 37.40625 -99.609375 C 32.300781 -97.140625 28.847656 -93.226562 27.046875 -87.875 C 25.253906 -82.519531 25.550781 -77.375 27.9375 -72.4375 C 30.40625 -67.332031 34.289062 -63.820312 39.59375 -61.90625 C 44.90625 -59.988281 50.113281 -60.265625 55.21875 -62.734375 Z M 55.21875 -62.734375 "/></g></g></g><g fill="#000000" fill-opacity="1"><g transform="translate(223.131076, 292.024672)"><g><path d="M 70.953125 -5.796875 C 59.378906 -4.210938 48.816406 -4.765625 39.265625 -7.453125 C 33.691406 -8.941406 28.460938 -11.390625 23.578125 -14.796875 C 18.691406 -18.203125 15.203125 -22.535156 13.109375 -27.796875 C 11.210938 -32.722656 10.03125 -36.890625 9.5625 -40.296875 C 8.519531 -47.953125 9.175781 -55.234375 11.53125 -62.140625 C 13.882812 -69.046875 17.679688 -74.242188 22.921875 -77.734375 C 16.816406 -76.734375 11.679688 -77.8125 7.515625 -80.96875 C 3.359375 -84.125 0.921875 -88.335938 0.203125 -93.609375 C -0.210938 -96.671875 0.0546875 -99.78125 1.015625 -102.9375 C 1.972656 -106.101562 3.578125 -108.972656 5.828125 -111.546875 C 10.328125 -116.660156 16.753906 -120.65625 25.109375 -123.53125 C 33.472656 -126.40625 42.535156 -128.25 52.296875 -129.0625 C 70.066406 -130.96875 85.585938 -127.109375 98.859375 -117.484375 C 105.984375 -112.222656 111.363281 -105.804688 115 -98.234375 C 118.644531 -90.671875 121.175781 -81.703125 122.59375 -71.328125 C 124.195312 -59.585938 123.628906 -49.757812 120.890625 -41.84375 C 118.160156 -33.9375 113.007812 -26.609375 105.4375 -19.859375 C 101.75 -16.398438 96.820312 -13.425781 90.65625 -10.9375 C 84.5 -8.457031 77.929688 -6.742188 70.953125 -5.796875 Z M 67.8125 -36.5625 C 73.082031 -37.28125 77.296875 -39.71875 80.453125 -43.875 C 83.609375 -48.039062 84.828125 -52.757812 84.109375 -58.03125 C 83.410156 -63.125 80.984375 -67.25 76.828125 -70.40625 C 72.671875 -73.570312 67.957031 -74.796875 62.6875 -74.078125 C 57.40625 -73.347656 53.1875 -70.898438 50.03125 -66.734375 C 46.875 -62.578125 45.644531 -57.953125 46.34375 -52.859375 C 47.0625 -47.585938 49.5 -43.367188 53.65625 -40.203125 C 57.8125 -37.046875 62.53125 -35.832031 67.8125 -36.5625 Z M 67.8125 -36.5625 "/></g></g></g><g fill="#000000" fill-opacity="1"><g transform="translate(337.945213, 273.454954)"><g><path d="M 71.734375 13.03125 C 61.054688 11.320312 52.207031 8.472656 45.1875 4.484375 C 38.175781 0.492188 32.6875 -4.859375 28.71875 -11.578125 C 25.40625 -16.984375 23.0625 -23.269531 21.6875 -30.4375 C 20.3125 -37.613281 20.191406 -44.765625 21.328125 -51.890625 C 22.410156 -58.671875 24.753906 -65.164062 28.359375 -71.375 C 32.648438 -78.675781 37.46875 -84.378906 42.8125 -88.484375 C 48.164062 -92.597656 55.582031 -95.460938 65.0625 -97.078125 C 72.925781 -98.429688 80.671875 -98.5 88.296875 -97.28125 C 98.984375 -95.570312 108.445312 -91.628906 116.6875 -85.453125 C 120.226562 -82.617188 122.804688 -79.203125 124.421875 -75.203125 C 126.035156 -71.203125 126.476562 -66.914062 125.75 -62.34375 C 124.863281 -56.75 122.675781 -52.015625 119.1875 -48.140625 C 115.695312 -44.265625 111.070312 -42.785156 105.3125 -43.703125 C 103.957031 -43.921875 102.453125 -44.289062 100.796875 -44.8125 C 99.140625 -45.34375 97.71875 -45.703125 96.53125 -45.890625 C 92.457031 -46.535156 88.796875 -46.203125 85.546875 -44.890625 C 82.296875 -43.585938 80.398438 -41.238281 79.859375 -37.84375 C 78.835938 -31.40625 83.160156 -27.414062 92.828125 -25.875 C 98.765625 -24.925781 103.203125 -23.867188 106.140625 -22.703125 C 109.222656 -21.335938 111.597656 -19.347656 113.265625 -16.734375 C 114.929688 -14.117188 115.691406 -11.257812 115.546875 -8.15625 C 115.503906 -5.726562 115.382812 -3.914062 115.1875 -2.71875 C 114.320312 2.695312 111.816406 6.988281 107.671875 10.15625 C 104.460938 12.769531 100.296875 14.320312 95.171875 14.8125 C 90.054688 15.300781 82.242188 14.707031 71.734375 13.03125 Z M 71.734375 13.03125 "/></g></g></g><g fill="#000000" fill-opacity="1"><g transform="translate(437.417948, 283.978379)"><g><path d="M 62.25 34.546875 C 51.75 29.441406 43.269531 23.125 36.8125 15.59375 C 32.988281 11.257812 29.988281 6.320312 27.8125 0.78125 C 25.644531 -4.757812 25.148438 -10.300781 26.328125 -15.84375 C 27.492188 -21 28.828125 -25.125 30.328125 -28.21875 C 33.703125 -35.175781 38.285156 -40.875 44.078125 -45.3125 C 49.867188 -49.75 55.910156 -51.960938 62.203125 -51.953125 C 56.566406 -54.515625 52.894531 -58.257812 51.1875 -63.1875 C 49.476562 -68.125 49.785156 -72.988281 52.109375 -77.78125 C 53.460938 -80.550781 55.414062 -82.984375 57.96875 -85.078125 C 60.519531 -87.179688 63.441406 -88.675781 66.734375 -89.5625 C 73.316406 -91.320312 80.878906 -91.078125 89.421875 -88.828125 C 97.972656 -86.585938 106.535156 -83.097656 115.109375 -78.359375 C 130.953125 -70.085938 141.722656 -58.269531 147.421875 -42.90625 C 150.441406 -34.570312 151.363281 -26.25 150.1875 -17.9375 C 149.019531 -9.625 146.144531 -0.757812 141.5625 8.65625 C 136.382812 19.320312 130.460938 27.1875 123.796875 32.25 C 117.140625 37.320312 108.785156 40.566406 98.734375 41.984375 C 93.753906 42.804688 88.007812 42.539062 81.5 41.1875 C 75 39.832031 68.582031 37.617188 62.25 34.546875 Z M 76.703125 7.203125 C 81.484375 9.523438 86.34375 9.832031 91.28125 8.125 C 96.21875 6.414062 99.847656 3.171875 102.171875 -1.609375 C 104.421875 -6.234375 104.691406 -11.015625 102.984375 -15.953125 C 101.273438 -20.890625 98.03125 -24.519531 93.25 -26.84375 C 88.457031 -29.175781 83.59375 -29.488281 78.65625 -27.78125 C 73.71875 -26.070312 70.125 -22.90625 67.875 -18.28125 C 65.550781 -13.5 65.242188 -8.640625 66.953125 -3.703125 C 68.660156 1.234375 71.910156 4.867188 76.703125 7.203125 Z M 76.703125 7.203125 "/></g></g></g></g></g><g transform="matrix(1, 0, 0, 1, 906, 202)"><g clip-path="url(#41f6a2607e)"><g fill="#ff3131" fill-opacity="1"><g transform="translate(105.13348, 229.130671)"><g><path d="M 9.28125 58.765625 C 5.25 54.785156 2.910156 50.125 2.265625 44.78125 C 1.617188 39.445312 2.320312 34.648438 4.375 30.390625 C 7.125 24.671875 12.140625 16.71875 19.421875 6.53125 C 26.710938 -3.65625 34.519531 -12.957031 42.84375 -21.375 C 56.96875 -35.664062 69.3125 -43.753906 79.875 -45.640625 C 88.113281 -47.140625 96.375 -46.21875 104.65625 -42.875 C 112.9375 -39.53125 120.554688 -34.421875 127.515625 -27.546875 C 133.003906 -22.109375 137.59375 -16.117188 141.28125 -9.578125 C 148.644531 3.253906 151.082031 15.203125 148.59375 26.265625 C 146.101562 37.328125 140.515625 47.257812 131.828125 56.0625 C 119.398438 68.632812 106.535156 74.867188 93.234375 74.765625 C 79.929688 74.660156 67.359375 68.753906 55.515625 57.046875 C 54.046875 55.585938 51.972656 53.289062 49.296875 50.15625 C 47.484375 52.71875 45.550781 55.035156 43.5 57.109375 C 31.675781 69.078125 20.269531 69.628906 9.28125 58.765625 Z M 77.59375 31.0625 C 81.625 35.039062 86.460938 36.976562 92.109375 36.875 C 97.753906 36.78125 102.566406 34.722656 106.546875 30.703125 C 110.410156 26.796875 112.351562 22.019531 112.375 16.375 C 112.40625 10.726562 110.40625 5.914062 106.375 1.9375 C 102.34375 -2.050781 97.503906 -4 91.859375 -3.90625 C 86.222656 -3.8125 81.472656 -1.8125 77.609375 2.09375 C 73.628906 6.113281 71.625 10.945312 71.59375 16.59375 C 71.5625 22.25 73.5625 27.070312 77.59375 31.0625 Z M 77.59375 31.0625 "/></g></g></g><g fill="#ff3131" fill-opacity="1"><g transform="translate(191.344957, 308.038814)"><g><path d="M 29.203125 64.921875 C 23.847656 54.546875 20.832031 44.410156 20.15625 34.515625 C 19.6875 28.765625 20.238281 23.015625 21.8125 17.265625 C 23.394531 11.523438 26.316406 6.785156 30.578125 3.046875 C 34.597656 -0.390625 38.132812 -2.894531 41.1875 -4.46875 C 48.050781 -8.019531 55.128906 -9.835938 62.421875 -9.921875 C 69.722656 -10.015625 75.890625 -8.171875 80.921875 -4.390625 C 77.941406 -9.816406 77.242188 -15.019531 78.828125 -20 C 80.410156 -24.976562 83.566406 -28.6875 88.296875 -31.125 C 91.035156 -32.539062 94.050781 -33.328125 97.34375 -33.484375 C 100.644531 -33.640625 103.882812 -33.085938 107.0625 -31.828125 C 113.394531 -29.296875 119.3125 -24.570312 124.8125 -17.65625 C 130.320312 -10.738281 135.085938 -2.816406 139.109375 6.109375 C 146.859375 22.210938 148.414062 38.125 143.78125 53.84375 C 141.207031 62.332031 136.960938 69.554688 131.046875 75.515625 C 125.140625 81.472656 117.535156 86.851562 108.234375 91.65625 C 97.703125 97.09375 88.253906 99.847656 79.890625 99.921875 C 71.523438 100.003906 62.890625 97.601562 53.984375 92.71875 C 49.503906 90.394531 45.0625 86.742188 40.65625 81.765625 C 36.257812 76.796875 32.441406 71.179688 29.203125 64.921875 Z M 57.140625 51.65625 C 59.578125 56.382812 63.285156 59.539062 68.265625 61.125 C 73.242188 62.71875 78.097656 62.296875 82.828125 59.859375 C 87.398438 57.492188 90.476562 53.820312 92.0625 48.84375 C 93.644531 43.863281 93.21875 39.007812 90.78125 34.28125 C 88.332031 29.550781 84.617188 26.394531 79.640625 24.8125 C 74.671875 23.226562 69.898438 23.617188 65.328125 25.984375 C 60.597656 28.421875 57.4375 32.125 55.84375 37.09375 C 54.257812 42.070312 54.691406 46.925781 57.140625 51.65625 Z M 57.140625 51.65625 "/></g></g></g><g fill="#ff3131" fill-opacity="1"><g transform="translate(247.25708, 410.023877)"><g><path d="M 11.734375 71.953125 C 9.765625 61.328125 9.488281 52.039062 10.90625 44.09375 C 12.320312 36.144531 15.53125 29.175781 20.53125 23.1875 C 24.507812 18.25 29.644531 13.929688 35.9375 10.234375 C 42.238281 6.546875 48.941406 4.046875 56.046875 2.734375 C 62.796875 1.484375 69.695312 1.519531 76.75 2.84375 C 85.070312 4.4375 92.0625 7.066406 97.71875 10.734375 C 103.375 14.398438 108.550781 20.429688 113.25 28.828125 C 117.15625 35.785156 119.8125 43.0625 121.21875 50.65625 C 123.1875 61.300781 122.632812 71.535156 119.5625 81.359375 C 118.082031 85.648438 115.726562 89.226562 112.5 92.09375 C 109.269531 94.957031 105.375 96.8125 100.8125 97.65625 C 95.238281 98.6875 90.046875 98.207031 85.234375 96.21875 C 80.421875 94.226562 77.484375 90.363281 76.421875 84.625 C 76.171875 83.28125 76.015625 81.738281 75.953125 80 C 75.890625 78.257812 75.75 76.800781 75.53125 75.625 C 74.78125 71.570312 73.242188 68.226562 70.921875 65.59375 C 68.609375 62.96875 65.765625 61.96875 62.390625 62.59375 C 55.972656 63.769531 53.65625 69.175781 55.4375 78.8125 C 56.53125 84.71875 57.019531 89.253906 56.90625 92.421875 C 56.65625 95.796875 55.570312 98.703125 53.65625 101.140625 C 51.75 103.578125 49.304688 105.25 46.328125 106.15625 C 44.035156 106.925781 42.296875 107.421875 41.109375 107.640625 C 35.710938 108.640625 30.832031 107.710938 26.46875 104.859375 C 22.925781 102.710938 20.066406 99.304688 17.890625 94.640625 C 15.722656 89.984375 13.671875 82.421875 11.734375 71.953125 Z M 11.734375 71.953125 "/></g></g></g><g fill="#ff3131" fill-opacity="1"><g transform="translate(270.619895, 507.285112)"><g><path d="M -11.71875 70.234375 C -10.425781 58.628906 -7.316406 48.519531 -2.390625 39.90625 C 0.421875 34.851562 4.070312 30.375 8.5625 26.46875 C 13.0625 22.570312 18.125 20.25 23.75 19.5 C 29 18.875 33.332031 18.753906 36.75 19.140625 C 44.425781 19.992188 51.320312 22.40625 57.4375 26.375 C 63.550781 30.34375 67.664062 35.296875 69.78125 41.234375 C 70.300781 35.066406 72.597656 30.351562 76.671875 27.09375 C 80.753906 23.832031 85.441406 22.5 90.734375 23.09375 C 93.796875 23.4375 96.742188 24.457031 99.578125 26.15625 C 102.410156 27.851562 104.796875 30.109375 106.734375 32.921875 C 110.597656 38.535156 112.898438 45.742188 113.640625 54.546875 C 114.390625 63.359375 113.960938 72.597656 112.359375 82.265625 C 109.859375 99.960938 102.320312 114.066406 89.75 124.578125 C 82.90625 130.203125 75.367188 133.851562 67.140625 135.53125 C 58.921875 137.207031 49.613281 137.460938 39.21875 136.296875 C 27.4375 134.984375 18.039062 132.035156 11.03125 127.453125 C 4.019531 122.878906 -1.828125 116.09375 -6.515625 107.09375 C -8.953125 102.664062 -10.625 97.164062 -11.53125 90.59375 C -12.4375 84.019531 -12.5 77.234375 -11.71875 70.234375 Z M 18.875 74.671875 C 18.28125 79.960938 19.613281 84.648438 22.875 88.734375 C 26.132812 92.816406 30.410156 95.15625 35.703125 95.75 C 40.816406 96.3125 45.410156 94.960938 49.484375 91.703125 C 53.566406 88.441406 55.90625 84.164062 56.5 78.875 C 57.082031 73.59375 55.742188 68.910156 52.484375 64.828125 C 49.234375 60.742188 45.050781 58.421875 39.9375 57.859375 C 34.644531 57.265625 29.957031 58.597656 25.875 61.859375 C 21.789062 65.117188 19.457031 69.390625 18.875 74.671875 Z M 18.875 74.671875 "/></g></g></g></g></g><g transform="matrix(1, 0, 0, 1, 644, 784)"><g clip-path="url(#2accf073c6)"><g fill="#000000" fill-opacity="1"><g transform="translate(519.796299, 121.281401)"><g><path d="M -55.578125 21.25 C -52.515625 16.476562 -48.4375 13.222656 -43.34375 11.484375 C -38.257812 9.753906 -33.421875 9.453125 -28.828125 10.578125 C -22.648438 12.078125 -13.828125 15.335938 -2.359375 20.359375 C 9.109375 25.378906 19.828125 31.09375 29.796875 37.5 C 46.703125 48.351562 57.171875 58.75 61.203125 68.6875 C 64.378906 76.4375 65.179688 84.707031 63.609375 93.5 C 62.046875 102.300781 58.625 110.816406 53.34375 119.046875 C 49.164062 125.546875 44.257812 131.273438 38.625 136.234375 C 27.601562 146.085938 16.421875 150.941406 5.078125 150.796875 C -6.253906 150.660156 -17.125 147.253906 -27.53125 140.578125 C -42.414062 131.015625 -51.179688 119.722656 -53.828125 106.703125 C -56.484375 93.679688 -53.3125 80.160156 -44.3125 66.140625 C -43.195312 64.410156 -41.382812 61.894531 -38.875 58.59375 C -41.75 57.363281 -44.414062 55.960938 -46.875 54.390625 C -61.03125 45.296875 -63.929688 34.25 -55.578125 21.25 Z M -14.296875 82.328125 C -17.359375 87.097656 -18.257812 92.234375 -17 97.734375 C -15.738281 103.242188 -12.726562 107.53125 -7.96875 110.59375 C -3.34375 113.5625 1.734375 114.472656 7.265625 113.328125 C 12.796875 112.191406 17.09375 109.238281 20.15625 104.46875 C 23.21875 99.707031 24.113281 94.570312 22.84375 89.0625 C 21.582031 83.5625 18.640625 79.328125 14.015625 76.359375 C 9.253906 73.296875 4.113281 72.332031 -1.40625 73.46875 C -6.9375 74.613281 -11.234375 77.566406 -14.296875 82.328125 Z M -14.296875 82.328125 "/></g></g></g><g fill="#000000" fill-opacity="1"><g transform="translate(460.454482, 221.966233)"><g><path d="M -57.46875 42.015625 C -48.425781 34.628906 -39.132812 29.578125 -29.59375 26.859375 C -24.0625 25.222656 -18.320312 24.582031 -12.375 24.9375 C -6.425781 25.289062 -1.1875 27.164062 3.34375 30.5625 C 7.539062 33.769531 10.726562 36.703125 12.90625 39.359375 C 17.789062 45.347656 21.035156 51.898438 22.640625 59.015625 C 24.242188 66.128906 23.71875 72.539062 21.0625 78.25 C 25.75 74.207031 30.691406 72.445312 35.890625 72.96875 C 41.085938 73.5 45.367188 75.820312 48.734375 79.9375 C 50.679688 82.320312 52.078125 85.113281 52.921875 88.3125 C 53.765625 91.507812 53.898438 94.789062 53.328125 98.15625 C 52.148438 104.863281 48.75 111.625 43.125 118.4375 C 37.5 125.257812 30.738281 131.570312 22.84375 137.375 C 8.6875 148.289062 -6.5625 153.101562 -22.90625 151.8125 C -31.726562 151.050781 -39.664062 148.394531 -46.71875 143.84375 C -53.78125 139.300781 -60.625 132.976562 -67.25 124.875 C -74.757812 115.695312 -79.414062 107.019531 -81.21875 98.84375 C -83.019531 90.675781 -82.457031 81.734375 -79.53125 72.015625 C -78.175781 67.148438 -75.519531 62.046875 -71.5625 56.703125 C -67.613281 51.367188 -62.914062 46.472656 -57.46875 42.015625 Z M -38.703125 66.59375 C -42.828125 69.96875 -45.148438 74.25 -45.671875 79.4375 C -46.191406 84.632812 -44.769531 89.289062 -41.40625 93.40625 C -38.144531 97.394531 -33.914062 99.648438 -28.71875 100.171875 C -23.519531 100.703125 -18.859375 99.28125 -14.734375 95.90625 C -10.617188 92.539062 -8.300781 88.257812 -7.78125 83.0625 C -7.257812 77.863281 -8.628906 73.269531 -11.890625 69.28125 C -15.253906 65.164062 -19.535156 62.847656 -24.734375 62.328125 C -29.929688 61.804688 -34.585938 63.226562 -38.703125 66.59375 Z M -38.703125 66.59375 "/></g></g></g><g fill="#000000" fill-opacity="1"><g transform="translate(372.260874, 297.788343)"><g><path d="M -67.96875 26.375 C -57.976562 22.25 -48.945312 20.050781 -40.875 19.78125 C -32.800781 19.519531 -25.320312 21.222656 -18.4375 24.890625 C -12.789062 27.765625 -7.503906 31.894531 -2.578125 37.28125 C 2.335938 42.675781 6.171875 48.710938 8.921875 55.390625 C 11.546875 61.734375 12.941406 68.492188 13.109375 75.671875 C 13.265625 84.148438 12.132812 91.535156 9.71875 97.828125 C 7.3125 104.117188 2.488281 110.429688 -4.75 116.765625 C -10.75 122.023438 -17.320312 126.132812 -24.46875 129.09375 C -34.476562 133.21875 -44.597656 134.789062 -54.828125 133.8125 C -59.347656 133.257812 -63.335938 131.695312 -66.796875 129.125 C -70.265625 126.5625 -72.882812 123.140625 -74.65625 118.859375 C -76.8125 113.617188 -77.414062 108.4375 -76.46875 103.3125 C -75.53125 98.195312 -72.363281 94.523438 -66.96875 92.296875 C -65.695312 91.773438 -64.21875 91.300781 -62.53125 90.875 C -60.84375 90.457031 -59.445312 90.019531 -58.34375 89.5625 C -54.53125 87.988281 -51.578125 85.796875 -49.484375 82.984375 C -47.390625 80.171875 -47 77.175781 -48.3125 74 C -50.800781 67.96875 -56.570312 66.816406 -65.625 70.546875 C -71.175781 72.835938 -75.515625 74.257812 -78.640625 74.8125 C -81.984375 75.257812 -85.046875 74.800781 -87.828125 73.4375 C -90.609375 72.082031 -92.753906 70.039062 -94.265625 67.3125 C -95.484375 65.226562 -96.328125 63.628906 -96.796875 62.515625 C -98.890625 57.441406 -98.992188 52.46875 -97.109375 47.59375 C -95.753906 43.6875 -93.019531 40.1875 -88.90625 37.09375 C -84.789062 34.007812 -77.8125 30.4375 -67.96875 26.375 Z M -67.96875 26.375 "/></g></g></g><g fill="#000000" fill-opacity="1"><g transform="translate(281.947225, 340.7886)"><g><path d="M -71.125 3.0625 C -59.507812 1.925781 -48.976562 2.878906 -39.53125 5.921875 C -34.007812 7.628906 -28.875 10.28125 -24.125 13.875 C -19.375 17.46875 -16.054688 21.929688 -14.171875 27.265625 C -12.460938 32.273438 -11.441406 36.488281 -11.109375 39.90625 C -10.347656 47.601562 -11.273438 54.851562 -13.890625 61.65625 C -16.515625 68.46875 -20.515625 73.519531 -25.890625 76.8125 C -19.753906 76.039062 -14.664062 77.3125 -10.625 80.625 C -6.59375 83.9375 -4.316406 88.242188 -3.796875 93.546875 C -3.492188 96.609375 -3.878906 99.703125 -4.953125 102.828125 C -6.035156 105.960938 -7.75 108.769531 -10.09375 111.25 C -14.789062 116.1875 -21.367188 119.929688 -29.828125 122.484375 C -38.296875 125.035156 -47.421875 126.523438 -57.203125 126.953125 C -75.035156 128.191406 -90.394531 123.742188 -103.28125 113.609375 C -110.21875 108.085938 -115.351562 101.472656 -118.6875 93.765625 C -122.03125 86.066406 -124.207031 77.007812 -125.21875 66.59375 C -126.375 54.789062 -125.4375 44.988281 -122.40625 37.1875 C -119.375 29.382812 -113.941406 22.253906 -106.109375 15.796875 C -102.296875 12.492188 -97.265625 9.71875 -91.015625 7.46875 C -84.765625 5.21875 -78.132812 3.75 -71.125 3.0625 Z M -69.15625 33.9375 C -74.457031 34.445312 -78.765625 36.71875 -82.078125 40.75 C -85.390625 44.78125 -86.785156 49.445312 -86.265625 54.75 C -85.765625 59.875 -83.5 64.09375 -79.46875 67.40625 C -75.4375 70.71875 -70.769531 72.117188 -65.46875 71.609375 C -60.175781 71.085938 -55.867188 68.8125 -52.546875 64.78125 C -49.234375 60.75 -47.828125 56.171875 -48.328125 51.046875 C -48.847656 45.742188 -51.125 41.4375 -55.15625 38.125 C -59.195312 34.8125 -63.863281 33.414062 -69.15625 33.9375 Z M -69.15625 33.9375 "/></g></g></g></g></g><g transform="matrix(1, 0, 0, 1, 61, 769)"><g clip-path="url(#1d65cebb8c)"><g fill="#000000" fill-opacity="1"><g transform="translate(658.9062, 412.934978)"><g><path d="M -38.40625 -45.4375 C -32.894531 -44.113281 -28.476562 -41.335938 -25.15625 -37.109375 C -21.84375 -32.890625 -19.957031 -28.425781 -19.5 -23.71875 C -18.882812 -17.382812 -19.050781 -7.976562 -20 4.5 C -20.945312 16.976562 -22.796875 28.976562 -25.546875 40.5 C -30.210938 60.039062 -36.570312 73.359375 -44.625 80.453125 C -50.882812 86.015625 -58.421875 89.507812 -67.234375 90.9375 C -76.054688 92.363281 -85.222656 91.941406 -94.734375 89.671875 C -102.253906 87.878906 -109.285156 85.140625 -115.828125 81.453125 C -128.773438 74.316406 -137.054688 65.367188 -140.671875 54.609375 C -144.285156 43.859375 -144.65625 32.472656 -141.78125 20.453125 C -137.675781 3.242188 -129.910156 -8.757812 -118.484375 -15.5625 C -107.066406 -22.363281 -93.257812 -23.832031 -77.0625 -19.96875 C -75.050781 -19.488281 -72.082031 -18.601562 -68.15625 -17.3125 C -67.945312 -20.445312 -67.503906 -23.429688 -66.828125 -26.265625 C -62.921875 -42.628906 -53.445312 -49.019531 -38.40625 -45.4375 Z M -82.4375 13.6875 C -87.957031 12.375 -93.101562 13.222656 -97.875 16.234375 C -102.65625 19.242188 -105.703125 23.503906 -107.015625 29.015625 C -108.285156 34.359375 -107.46875 39.453125 -104.5625 44.296875 C -101.664062 49.140625 -97.457031 52.21875 -91.9375 53.53125 C -86.425781 54.84375 -81.28125 53.992188 -76.5 50.984375 C -71.726562 47.972656 -68.707031 43.796875 -67.4375 38.453125 C -66.125 32.941406 -66.914062 27.765625 -69.8125 22.921875 C -72.71875 18.078125 -76.925781 15 -82.4375 13.6875 Z M -82.4375 13.6875 "/></g></g></g><g fill="#000000" fill-opacity="1"><g transform="translate(544.27105, 390.182241)"><g><path d="M -58.640625 -40.375 C -48.679688 -34.28125 -40.847656 -27.175781 -35.140625 -19.0625 C -31.753906 -14.382812 -29.242188 -9.179688 -27.609375 -3.453125 C -25.984375 2.273438 -26.023438 7.84375 -27.734375 13.25 C -29.390625 18.257812 -31.113281 22.234375 -32.90625 25.171875 C -36.9375 31.765625 -42.046875 36.988281 -48.234375 40.84375 C -54.421875 44.707031 -60.644531 46.34375 -66.90625 45.75 C -61.539062 48.820312 -58.242188 52.894531 -57.015625 57.96875 C -55.796875 63.050781 -56.570312 67.863281 -59.34375 72.40625 C -60.957031 75.03125 -63.132812 77.269531 -65.875 79.125 C -68.613281 80.976562 -71.664062 82.1875 -75.03125 82.75 C -81.75 83.863281 -89.253906 82.890625 -97.546875 79.828125 C -105.847656 76.773438 -114.035156 72.472656 -122.109375 66.921875 C -137.085938 57.171875 -146.671875 44.375 -150.859375 28.53125 C -153.066406 19.945312 -153.1875 11.570312 -151.21875 3.40625 C -149.25 -4.75 -145.535156 -13.289062 -140.078125 -22.21875 C -133.890625 -32.332031 -127.238281 -39.59375 -120.125 -44 C -113.007812 -48.40625 -104.378906 -50.832031 -94.234375 -51.28125 C -89.191406 -51.613281 -83.5 -50.796875 -77.15625 -48.828125 C -70.820312 -46.867188 -64.648438 -44.050781 -58.640625 -40.375 Z M -75.640625 -14.53125 C -80.179688 -17.3125 -84.988281 -18.085938 -90.0625 -16.859375 C -95.144531 -15.640625 -99.070312 -12.757812 -101.84375 -8.21875 C -104.53125 -3.832031 -105.257812 0.894531 -104.03125 5.96875 C -102.800781 11.050781 -99.914062 14.984375 -95.375 17.765625 C -90.832031 20.535156 -86.023438 21.304688 -80.953125 20.078125 C -75.890625 18.859375 -72.015625 16.054688 -69.328125 11.671875 C -66.554688 7.128906 -65.78125 2.320312 -67 -2.75 C -68.21875 -7.832031 -71.097656 -11.757812 -75.640625 -14.53125 Z M -75.640625 -14.53125 "/></g></g></g><g fill="#000000" fill-opacity="1"><g transform="translate(443.572763, 331.984516)"><g><path d="M -47.34375 -55.4375 C -40.144531 -47.363281 -35.085938 -39.5625 -32.171875 -32.03125 C -29.265625 -24.507812 -28.398438 -16.890625 -29.578125 -9.171875 C -30.421875 -2.898438 -32.578125 3.445312 -36.046875 9.875 C -39.515625 16.3125 -43.941406 21.929688 -49.328125 26.734375 C -54.453125 31.296875 -60.375 34.84375 -67.09375 37.375 C -75.039062 40.320312 -82.382812 41.691406 -89.125 41.484375 C -95.863281 41.285156 -103.414062 38.820312 -111.78125 34.09375 C -118.726562 30.164062 -124.769531 25.316406 -129.90625 19.546875 C -137.113281 11.460938 -141.953125 2.425781 -144.421875 -7.5625 C -145.378906 -12 -145.21875 -16.273438 -143.9375 -20.390625 C -142.664062 -24.515625 -140.300781 -28.117188 -136.84375 -31.203125 C -132.613281 -34.972656 -127.921875 -37.253906 -122.765625 -38.046875 C -117.617188 -38.847656 -113.109375 -37.070312 -109.234375 -32.71875 C -108.316406 -31.695312 -107.378906 -30.457031 -106.421875 -29 C -105.472656 -27.539062 -104.601562 -26.367188 -103.8125 -25.484375 C -101.0625 -22.398438 -98.015625 -20.332031 -94.671875 -19.28125 C -91.328125 -18.238281 -88.367188 -18.863281 -85.796875 -21.15625 C -80.929688 -25.5 -81.757812 -31.328125 -88.28125 -38.640625 C -92.28125 -43.128906 -95.050781 -46.75 -96.59375 -49.5 C -98.125 -52.519531 -98.703125 -55.566406 -98.328125 -58.640625 C -97.960938 -61.722656 -96.742188 -64.414062 -94.671875 -66.71875 C -93.109375 -68.570312 -91.878906 -69.90625 -90.984375 -70.71875 C -86.878906 -74.363281 -82.21875 -76.101562 -77 -75.9375 C -72.851562 -75.945312 -68.644531 -74.519531 -64.375 -71.65625 C -60.101562 -68.789062 -54.425781 -63.382812 -47.34375 -55.4375 Z M -47.34375 -55.4375 "/></g></g></g><g fill="#000000" fill-opacity="1"><g transform="translate(373.153853, 260.944116)"><g><path d="M -26.390625 -66.125 C -21.484375 -55.53125 -18.90625 -45.269531 -18.65625 -35.34375 C -18.445312 -29.582031 -19.25 -23.863281 -21.0625 -18.1875 C -22.882812 -12.519531 -26.003906 -7.914062 -30.421875 -4.375 C -34.578125 -1.101562 -38.21875 1.253906 -41.34375 2.703125 C -48.351562 5.953125 -55.503906 7.460938 -62.796875 7.234375 C -70.085938 7.015625 -76.164062 4.910156 -81.03125 0.921875 C -78.289062 6.472656 -77.816406 11.695312 -79.609375 16.59375 C -81.410156 21.5 -84.726562 25.070312 -89.5625 27.3125 C -92.351562 28.601562 -95.398438 29.257812 -98.703125 29.28125 C -102.015625 29.300781 -105.222656 28.613281 -108.328125 27.21875 C -114.546875 24.414062 -120.253906 19.441406 -125.453125 12.296875 C -130.660156 5.148438 -135.085938 -2.96875 -138.734375 -12.0625 C -145.785156 -28.488281 -146.660156 -44.453125 -141.359375 -59.953125 C -138.421875 -68.316406 -133.867188 -75.347656 -127.703125 -81.046875 C -121.546875 -86.753906 -113.71875 -91.804688 -104.21875 -96.203125 C -93.46875 -101.191406 -83.90625 -103.539062 -75.53125 -103.25 C -67.164062 -102.96875 -58.644531 -100.203125 -49.96875 -94.953125 C -45.582031 -92.429688 -41.296875 -88.59375 -37.109375 -83.4375 C -32.929688 -78.28125 -29.359375 -72.507812 -26.390625 -66.125 Z M -54.859375 -54.0625 C -57.097656 -58.894531 -60.671875 -62.207031 -65.578125 -64 C -70.484375 -65.800781 -75.347656 -65.582031 -80.171875 -63.34375 C -84.847656 -61.175781 -88.082031 -57.640625 -89.875 -52.734375 C -91.675781 -47.835938 -91.457031 -42.972656 -89.21875 -38.140625 C -86.976562 -33.304688 -83.40625 -29.988281 -78.5 -28.1875 C -73.601562 -26.394531 -68.816406 -26.582031 -64.140625 -28.75 C -59.316406 -30.988281 -56.003906 -34.554688 -54.203125 -39.453125 C -52.398438 -44.359375 -52.617188 -49.226562 -54.859375 -54.0625 Z M -54.859375 -54.0625 "/></g></g></g></g></g><g transform="matrix(1, 0, 0, 1, 0, 230)"><g clip-path="url(#6259a841f3)"><g fill="#000000" fill-opacity="1"><g transform="translate(342.219059, 641.82702)"><g><path d="M 26.625 -53.203125 C 27.582031 -47.617188 26.769531 -42.46875 24.1875 -37.75 C 21.613281 -33.039062 18.257812 -29.546875 14.125 -27.265625 C 8.539062 -24.210938 -0.171875 -20.660156 -12.015625 -16.609375 C -23.859375 -12.566406 -35.617188 -9.539062 -47.296875 -7.53125 C -67.097656 -4.113281 -81.835938 -4.707031 -91.515625 -9.3125 C -99.097656 -12.875 -105.285156 -18.425781 -110.078125 -25.96875 C -114.867188 -33.507812 -118.09375 -42.101562 -119.75 -51.75 C -121.0625 -59.363281 -121.316406 -66.898438 -120.515625 -74.359375 C -119.054688 -89.078125 -114.097656 -100.210938 -105.640625 -107.765625 C -97.179688 -115.328125 -86.859375 -120.160156 -74.671875 -122.265625 C -57.242188 -125.265625 -43.148438 -122.859375 -32.390625 -115.046875 C -21.628906 -107.234375 -14.832031 -95.117188 -12 -78.703125 C -11.644531 -76.671875 -11.289062 -73.585938 -10.9375 -69.453125 C -7.96875 -70.503906 -5.046875 -71.273438 -2.171875 -71.765625 C 14.398438 -74.628906 24 -68.441406 26.625 -53.203125 Z M -45.078125 -70.375 C -46.035156 -75.957031 -48.835938 -80.347656 -53.484375 -83.546875 C -58.128906 -86.753906 -63.25 -87.878906 -68.84375 -86.921875 C -74.25 -85.984375 -78.601562 -83.222656 -81.90625 -78.640625 C -85.21875 -74.066406 -86.394531 -68.988281 -85.4375 -63.40625 C -84.46875 -57.820312 -81.660156 -53.425781 -77.015625 -50.21875 C -72.367188 -47.019531 -67.34375 -45.890625 -61.9375 -46.828125 C -56.34375 -47.785156 -51.890625 -50.550781 -48.578125 -55.125 C -45.273438 -59.707031 -44.109375 -64.789062 -45.078125 -70.375 Z M -45.078125 -70.375 "/></g></g></g><g fill="#000000" fill-opacity="1"><g transform="translate(317.954808, 527.502229)"><g><path d="M 13.984375 -69.8125 C 12.316406 -58.257812 8.878906 -48.257812 3.671875 -39.8125 C 0.710938 -34.863281 -3.078125 -30.507812 -7.703125 -26.75 C -12.328125 -22.988281 -17.460938 -20.828125 -23.109375 -20.265625 C -28.367188 -19.804688 -32.703125 -19.820312 -36.109375 -20.3125 C -43.753906 -21.414062 -50.566406 -24.050781 -56.546875 -28.21875 C -62.535156 -32.382812 -66.488281 -37.46875 -68.40625 -43.46875 C -69.125 -37.320312 -71.570312 -32.6875 -75.75 -29.5625 C -79.9375 -26.4375 -84.664062 -25.253906 -89.9375 -26.015625 C -92.988281 -26.460938 -95.898438 -27.578125 -98.671875 -29.359375 C -101.453125 -31.148438 -103.769531 -33.476562 -105.625 -36.34375 C -109.289062 -42.082031 -111.351562 -49.367188 -111.8125 -58.203125 C -112.28125 -67.035156 -111.550781 -76.25 -109.625 -85.84375 C -106.570312 -103.457031 -98.585938 -117.316406 -85.671875 -127.421875 C -78.648438 -132.828125 -71 -136.234375 -62.71875 -137.640625 C -54.445312 -139.046875 -45.128906 -139 -34.765625 -137.5 C -23.035156 -135.8125 -13.742188 -132.5625 -6.890625 -127.75 C -0.046875 -122.9375 5.578125 -115.960938 9.984375 -106.828125 C 12.285156 -102.316406 13.78125 -96.757812 14.46875 -90.15625 C 15.15625 -83.5625 14.992188 -76.78125 13.984375 -69.8125 Z M -16.4375 -75.25 C -15.675781 -80.519531 -16.859375 -85.242188 -19.984375 -89.421875 C -23.117188 -93.609375 -27.320312 -96.082031 -32.59375 -96.84375 C -37.6875 -97.582031 -42.320312 -96.382812 -46.5 -93.25 C -50.675781 -90.125 -53.144531 -85.925781 -53.90625 -80.65625 C -54.675781 -75.394531 -53.5 -70.671875 -50.375 -66.484375 C -47.25 -62.304688 -43.140625 -59.847656 -38.046875 -59.109375 C -32.773438 -58.347656 -28.046875 -59.53125 -23.859375 -62.65625 C -19.679688 -65.789062 -17.207031 -69.988281 -16.4375 -75.25 Z M -16.4375 -75.25 "/></g></g></g><g fill="#000000" fill-opacity="1"><g transform="translate(331.759568, 412.018279)"><g><path d="M 32.296875 -65.359375 C 27.710938 -55.566406 22.535156 -47.847656 16.765625 -42.203125 C 10.992188 -36.566406 4.332031 -32.765625 -3.21875 -30.796875 C -9.320312 -29.097656 -16.007812 -28.578125 -23.28125 -29.234375 C -30.5625 -29.890625 -37.472656 -31.742188 -44.015625 -34.796875 C -50.222656 -37.710938 -55.816406 -41.757812 -60.796875 -46.9375 C -66.628906 -53.070312 -70.78125 -59.273438 -73.25 -65.546875 C -75.726562 -71.828125 -76.441406 -79.75 -75.390625 -89.3125 C -74.503906 -97.226562 -72.425781 -104.6875 -69.15625 -111.6875 C -64.570312 -121.5 -58.175781 -129.507812 -49.96875 -135.71875 C -46.269531 -138.34375 -42.273438 -139.878906 -37.984375 -140.328125 C -33.691406 -140.785156 -29.445312 -140.035156 -25.25 -138.078125 C -20.113281 -135.671875 -16.164062 -132.253906 -13.40625 -127.828125 C -10.644531 -123.410156 -10.5 -118.5625 -12.96875 -113.28125 C -13.550781 -112.039062 -14.320312 -110.695312 -15.28125 -109.25 C -16.25 -107.800781 -16.988281 -106.535156 -17.5 -105.453125 C -19.238281 -101.710938 -19.925781 -98.097656 -19.5625 -94.609375 C -19.207031 -91.117188 -17.476562 -88.644531 -14.375 -87.1875 C -8.46875 -84.425781 -3.441406 -87.484375 0.703125 -96.359375 C 3.253906 -101.796875 5.5 -105.769531 7.4375 -108.28125 C 9.601562 -110.875 12.171875 -112.609375 15.140625 -113.484375 C 18.109375 -114.359375 21.066406 -114.296875 24.015625 -113.296875 C 26.335938 -112.597656 28.046875 -111.992188 29.140625 -111.484375 C 34.109375 -109.148438 37.539062 -105.554688 39.4375 -100.703125 C 41.070312 -96.898438 41.414062 -92.46875 40.46875 -87.40625 C 39.53125 -82.351562 36.804688 -75.003906 32.296875 -65.359375 Z M 32.296875 -65.359375 "/></g></g></g><g fill="#000000" fill-opacity="1"><g transform="translate(369.300197, 319.302209)"><g><path d="M 50.375 -50.3125 C 42.570312 -41.625 34.160156 -35.210938 25.140625 -31.078125 C 19.929688 -28.609375 14.359375 -27.09375 8.421875 -26.53125 C 2.492188 -25.96875 -2.972656 -27.019531 -7.984375 -29.6875 C -12.609375 -32.21875 -16.203125 -34.628906 -18.765625 -36.921875 C -24.515625 -42.085938 -28.722656 -48.066406 -31.390625 -54.859375 C -34.066406 -61.648438 -34.535156 -68.070312 -32.796875 -74.125 C -36.804688 -69.40625 -41.414062 -66.90625 -46.625 -66.625 C -51.84375 -66.34375 -56.429688 -67.976562 -60.390625 -71.53125 C -62.679688 -73.59375 -64.484375 -76.140625 -65.796875 -79.171875 C -67.117188 -82.203125 -67.753906 -85.421875 -67.703125 -88.828125 C -67.578125 -95.648438 -65.253906 -102.859375 -60.734375 -110.453125 C -56.222656 -118.054688 -50.503906 -125.320312 -43.578125 -132.25 C -31.273438 -145.207031 -16.945312 -152.304688 -0.59375 -153.546875 C 8.25 -154.140625 16.5 -152.726562 24.15625 -149.3125 C 31.820312 -145.894531 39.550781 -140.6875 47.34375 -133.6875 C 56.164062 -125.769531 62.09375 -117.910156 65.125 -110.109375 C 68.164062 -102.316406 68.984375 -93.390625 67.578125 -83.328125 C 66.984375 -78.316406 65.144531 -72.867188 62.0625 -66.984375 C 58.976562 -61.109375 55.082031 -55.550781 50.375 -50.3125 Z M 28.0625 -71.734375 C 31.625 -75.703125 33.265625 -80.289062 32.984375 -85.5 C 32.703125 -90.707031 30.578125 -95.09375 26.609375 -98.65625 C 22.785156 -102.09375 18.265625 -103.671875 13.046875 -103.390625 C 7.835938 -103.109375 3.453125 -100.984375 -0.109375 -97.015625 C -3.660156 -93.054688 -5.296875 -88.472656 -5.015625 -83.265625 C -4.734375 -78.054688 -2.679688 -73.734375 1.140625 -70.296875 C 5.109375 -66.734375 9.695312 -65.09375 14.90625 -65.375 C 20.125 -65.65625 24.507812 -67.773438 28.0625 -71.734375 Z M 28.0625 -71.734375 "/></g></g></g></g></g></svg>